<svg width="4147" height="4010" viewBox="0 0 4147 4010" fill="none" xmlns="http://www.w3.org/2000/svg">
<path d="M524.348 550.139C527.323 583.371 529.088 617.113 530.542 649.846C531.286 666.126 531.954 682.468 532.964 696.859C533.446 703.693 534.127 710.84 534.745 714.331C534.894 715.202 535.019 715.716 535.069 715.775C535.09 715.78 535.082 715.62 535.023 715.258C534.97 714.926 534.846 714.277 534.57 713.204C534.292 712.133 533.897 710.732 533.191 708.733C532.313 706.292 531.03 703.053 528.725 698.75C526.857 695.233 521.832 686.687 513.392 678.461C506.087 670.667 486.438 657.144 465.72 653.979C464.665 653.699 461.847 653.028 455.912 653.769C450.152 654.43 440.829 657.442 433.196 663.039C438.275 676.81 448.448 577.193 467.573 477.163C485.083 398.577 510.682 319.049 541.21 244.819C553.496 214.25 575.2 185.855 603.072 165.926C659.258 130.755 686.992 137.51 713.208 135.011C738.755 134.724 760.046 136.668 780.399 138.781C825.458 142.985 859.831 168.742 876.802 184.874C894.623 201.769 904.421 214.054 908.372 217.616C963.109 277.059 961.039 313.662 970.471 349.464C976.9 384.708 979.286 416.826 980.5 448.1C982.61 510.571 979.62 568.953 973.183 627.092C966.74 686.31 942.521 733.374 925.428 766.276C923.592 769.808 921.829 773.238 920.712 775.434C920.171 776.479 919.792 777.258 919.845 776.871C919.883 776.274 920.485 775.394 921.664 768.099C923.907 759.51 920.838 730.648 905.439 714.573C890.924 698.922 882.436 698.447 880.393 697.593C876.302 697.165 885.643 699.464 895.753 699.99C906.357 700.754 919.616 700.935 935.071 701.153C951.372 701.751 965.837 700.428 997.22 705.697C1008.54 707.821 1026.01 712.845 1042.85 728.248C1059.99 743.543 1068.84 766.684 1070.47 781.408C1073.44 811.773 1066.72 823.255 1062.94 834.058C1054.17 854.019 1045.32 864.917 1034.91 876.46C1033.68 878.003 1029.36 881.975 1027.94 883.353C917.804 959.209 827.127 975.461 722.583 1017.53L724.693 1016.59C463.927 1123.08 195.261 1242.52 105.364 1267.36C92.6665 1270.88 80.5614 1276.99 82.8769 1269.25C101.817 1260.47 120.743 1251.75 139.753 1243.02C133.715 1240.36 127.669 1237.71 121.616 1235.06C162.885 1214.73 204.156 1194.59 245.551 1174.58C207.779 1188.11 170.084 1201.74 132.393 1215.52C137.024 1210.79 141.722 1206.03 146.383 1201.3C91.1802 1231.57 47.0686 1240.35 3.52208 1253.28C-14.9453 1252.54 44.8761 1229.99 51.9295 1226.19C56.0029 1223.99 68.6726 1204.7 116.865 1184.58C86.1019 1197.13 55.3854 1209.75 24.6883 1222.48C17.2503 1223.06 9.84101 1223.63 2.41338 1224.22C54.8104 1197.73 107.372 1171.48 160.002 1145.5C155.367 1141.13 119.068 1162.25 105.335 1163.41C95.294 1164.27 95.9558 1159.01 94.1449 1155.25C139.303 1132.92 184.657 1110.72 229.98 1088.76C209.449 1094.62 188.849 1100.55 168.281 1106.51C332.287 1026.83 496.472 953.538 663.715 884.924C664.237 884.716 665.755 883.979 666.284 883.789C759.269 848.285 874.693 812.842 932.99 774.691L927.251 780.369C927.991 779.801 928.744 779.09 929.198 778.707C929.649 778.37 929.809 778.177 929.26 779.881C929.063 782.051 926.199 784.111 927.573 800.716C928.384 808.749 933.445 823.592 944.628 833.79C955.574 843.974 966.452 846.698 972.141 847.656C965.138 845.213 936.779 845.23 912.504 844.701C899.651 844.363 886.2 843.945 870.465 842.065C854.392 838.796 837.811 841.325 805.461 817.619C785.13 803.619 773.91 764.204 779.368 745.754C783.391 726.378 787.027 722.084 790.099 714.822C793.234 708.308 796.031 702.96 798.729 697.696C804.094 687.282 808.878 677.757 813.061 668.319C821.408 649.571 827.219 631.43 829.315 614.39C835.217 561.835 837.759 507.154 835.791 453.833C834.737 427.232 832.475 400.771 827.929 376.313C824.172 352.836 813.646 326.801 809.599 324.162C782.825 296.087 767.267 281.295 766.048 283.597C748.501 281.761 731.29 280.438 715.926 280.657C708.311 280.764 701.145 281.317 695.696 282.309C690.284 283.15 686.727 285.141 688.445 284.134C683.234 287.884 679.107 293.066 676.464 299.597C648.329 368.59 626.064 438.452 610.16 510.139C601.294 549.112 597.947 589.924 591.554 635.403C585.232 678.451 572.935 741.756 519.894 780.825C493.644 800.512 462.188 801.722 440.25 797.877C423.658 795.155 411.596 784.221 406.899 778.229C401.013 770.829 399.402 766.826 397.472 762.638C395.593 758.214 394.84 755.754 393.975 752.876C393.567 751.484 393.204 750.128 392.872 748.796C392.559 747.534 392.332 746.56 392.09 745.46C390.151 736.35 389.465 729.999 388.768 723.601C381.26 585.948 380.039 463.258 336.86 354.287C332.334 342.933 327.075 333.008 322.875 327.864C320.835 325.294 319.208 324.121 319.036 324.295C318.78 324.433 320.41 325.746 322.136 326.35C322.839 326.717 326.854 327.432 330.221 327.125C333.647 326.88 335.766 326.125 336.19 326.083C337.025 325.884 333.203 328.407 329.172 332.249C268.317 387.528 216.637 457.252 189.32 528.776C160.009 603.933 151.115 675.189 159.81 753.091C157.025 738.305 154.723 723.718 153.035 709.214C145.534 695.04 147.244 733.998 145.253 731.143C141.498 720.019 138.056 708.834 134.994 697.516C133.903 719.885 134.324 742.714 135.8 766.038C129.675 750.858 123.987 735.597 118.919 720.072C118.803 743.332 120.098 766.959 122.25 790.894C108.101 804.772 104.444 726.987 103.396 719.996C96.5516 697.074 98.8369 749.902 94.5568 744.171C91.2931 723.978 88.9097 703.633 87.7438 683.101C84.0872 691.162 80.6167 699.392 77.3262 707.761C67.0154 663.781 51.0866 676.504 40.1346 644.323C42.2235 588.127 54.3826 531.467 72.751 477.993C106.762 381.726 165.311 298.175 240.477 226.467C249.999 217.958 260.644 208.631 279.303 199.423C296.485 189.754 332.751 184.368 355.043 190.673C438.683 214.819 454.377 273.987 470.158 305.715C503.196 386.505 517.004 469.378 524.348 550.139Z" fill="white"/>
<path d="M1685.82 502.907C1689.08 553.696 1691.75 603.713 1695.62 655.117C1695.54 637.038 1683.32 615.363 1674.95 608.158C1666.45 600.036 1662.65 599.009 1661.78 598.347C1660.2 597.621 1667.03 599.635 1674.8 600.589C1691.05 602.848 1713.13 603.808 1735.75 603.948C1781.42 604.191 1831.3 601.772 1882.19 599.305C1886.45 599.091 1889.96 598.632 1890.57 598.451C1891.1 598.565 1888.63 597.615 1876.68 604.176C1864.45 609.483 1846.16 634.429 1844.68 644.55C1841.92 654.917 1843.24 652.413 1843.3 646.566C1850.38 550.189 1833.61 463.886 1847 329.322C1855.36 281.605 1878.51 255.776 1901.33 235.684C1999.37 165.79 2066.81 187.492 2110.8 179.721C2126.71 179.243 2163.66 170.108 2211.79 178.501C2289.97 191.66 2337.61 255.232 2357.49 295.078C2379.48 337.848 2390.05 374.921 2400.37 409.058C2414.22 455.87 2423.54 506.985 2420.09 561.409C2418.86 613.348 2391.41 678.765 2384.12 695.035C2383.55 696.154 2384.09 695.252 2384.24 689.216C2384.13 690.762 2384.03 692.064 2383.95 693.054C2383.87 694.192 2383.81 695.275 2383.75 694.88C2383.74 694.722 2383.72 694.387 2383.68 693.74C2383.66 693.415 2383.64 693.01 2383.6 692.488C2383.54 691.639 2383.45 690.139 2383.14 687.721C2382.77 685.175 2382.49 681.953 2380.4 674.553C2380.27 674.082 2380.12 673.592 2379.96 673.08C2379.7 672.296 2380.01 673.073 2378.74 669.434C2376.52 663.848 2374.04 655.963 2363.49 642.985C2354.33 630.862 2325.9 609.358 2291.37 612.155C2257.61 614.974 2241.1 631.63 2233.15 639.728C2229.09 644.067 2226 648.43 2224.65 650.451C2224.1 651.274 2223.6 652.055 2223.13 652.797C2222.21 654.281 2221.43 655.613 2220.77 656.824C2219.43 659.245 2218.5 661.194 2217.74 662.858C2212.55 675.219 2213.29 675.951 2212.85 677.026C2212.36 679.169 2212.41 679.291 2212.44 679.252C2212.46 679.226 2212.49 679.117 2212.54 678.942C2212.58 678.777 2212.64 678.49 2212.69 678.296C2213.62 674.014 2214.86 666.64 2216.02 659.597C2218.37 645.244 2220.82 629.331 2223.41 612.442C2228.73 578.275 2233.79 542.379 2241.65 498.032C2253.41 437.107 2271.12 376.991 2291.97 314.126C2329.34 209.351 2424.28 192.312 2479.16 177.863C2524.21 167.724 2562.48 169.743 2600.09 173.909C2682.25 189.808 2699.32 236.709 2724.16 264.325C2802.59 374.097 2792 493.015 2777.92 582.371C2769.76 628.08 2757.86 668.808 2744.03 704.6C2737.08 722.457 2729.7 738.936 2721.44 754.213C2717.34 761.707 2713.08 768.945 2707.83 776.399C2706.66 778.019 2705.16 780.079 2703.66 781.96C2702.1 783.911 2700.87 785.327 2698.66 787.729C2696.42 790.018 2695.13 791.399 2690.88 794.548C2688.84 795.944 2687.01 797.111 2683.52 798.482C2679.5 800.062 2673.62 801.105 2667.57 799.548L2668.07 799.661C2647.41 792.6 2629.95 786.585 2616.73 781.333C2603.3 776.028 2588.68 773.151 2595.82 768.576C2618.2 773.71 2640.56 778.897 2662.73 784.476C2659.33 778.529 2655.88 772.591 2652.39 766.661C2659.6 768.237 2666.8 769.848 2674 771.517C2674.03 771.525 2674.13 771.543 2674.16 771.552C2673.44 771.39 2672.8 771.516 2672.6 771.597C2672.39 771.682 2672.53 771.661 2672.71 771.56C2673.07 771.38 2673.98 770.618 2674.57 770.017C2675.23 769.355 2676.07 768.391 2676.82 767.424C2677.48 766.595 2678.17 765.651 2678.89 764.601C2681.74 760.44 2684.32 755.79 2686.63 751.293C2691.41 741.929 2695.58 732.076 2699.41 722.156C2707.06 702.244 2713.42 681.666 2718.84 660.895C2711.38 681.172 2703.01 701.095 2693.48 720.008C2688.72 729.417 2683.63 738.696 2678.12 747.155C2675.45 751.19 2672.52 755.323 2669.65 758.549C2668.93 759.358 2668.26 760.038 2667.67 760.568C2667 761.204 2666.34 761.735 2665.95 761.905C2665.6 762.076 2665.25 762.042 2666.11 761.268C2666.62 760.886 2666.96 760.459 2668.99 759.71C2670.83 759.051 2673.85 758.578 2677.05 759.267C2676.96 759.242 2676.69 759.191 2676.61 759.168C2676.08 758.991 2675.55 758.815 2675.02 758.638C2675.6 758.593 2676.17 758.548 2676.75 758.503C2676.84 758.527 2677.12 758.579 2677.21 758.605C2673.3 757.415 2669.55 757.927 2667.44 758.521C2667.17 758.595 2666.92 758.67 2666.68 758.744C2666.49 758.797 2666.34 758.836 2666.18 758.88C2665.88 758.967 2665.6 759.05 2665.35 759.125C2664.85 759.277 2664.47 759.397 2664.17 759.473C2663.56 759.63 2663.29 759.585 2663.15 759.385C2663 759.201 2662.94 758.923 2662.94 758.559C2663.11 756.885 2663.38 754.835 2663.9 752.148C2662.59 754.437 2661.54 755.975 2660.84 756.811C2660.71 756.961 2660.66 757.004 2660.73 756.931C2660.77 756.891 2661.09 756.568 2661.78 756.053C2662.14 755.794 2662.6 755.481 2663.2 755.132C2663.87 754.763 2664.33 754.477 2665.89 753.871C2668.6 752.809 2673.38 751.889 2678.5 753.111C2678.38 753.077 2678.03 753.01 2677.91 752.979C2640.24 744.488 2610.12 734.263 2582.23 723.529L2582.84 723.646C2568.81 717.663 2552.19 710.626 2535.72 705.367C2521.38 695.781 2566.08 706.118 2585.09 712.404L2584.28 712.25C2590.44 713.874 2595.28 715.135 2597.23 715.461C2602.33 716.446 2625.73 708.816 2682.66 724.866C2650.21 715.306 2618.36 706.822 2586.81 698.308L2587.86 698.507C2584.6 697.538 2581.24 696.513 2577.63 695.435C2570.95 691.016 2563.21 686.395 2555.2 681.984C2568.06 684.434 2580.17 687.368 2589.67 689.437L2588.46 689.208C2620.79 695.629 2653.42 702.012 2687.05 709.599C2687.37 709.682 2688.34 709.865 2688.66 709.956C2663.4 703.9 2643.48 715.077 2639.84 717.463C2633.53 721.327 2630.12 724.901 2629.05 725.998C2626.11 729.131 2625.89 729.867 2625.87 729.907C2626.03 729.851 2627.61 727.337 2628.98 724.743C2632.05 718.925 2635.24 711.743 2638.4 703.722C2635.36 703.591 2631.04 712.405 2626.55 719.927C2624.34 723.68 2621.88 727.186 2621.33 726.883C2621.29 726.822 2621.29 726.682 2621.35 726.46C2621.43 726.221 2621.49 725.997 2621.8 725.455C2622.38 724.448 2623.44 722.864 2625.36 720.696C2627.45 718.394 2632.03 713.873 2639.75 709.515C2646.53 705.059 2669.32 697.156 2690.42 702.459C2690.07 702.358 2689 702.155 2688.64 702.062C2688.08 701.765 2687.55 701.466 2687.06 701.168C2677.34 695.197 2681.61 691.643 2682.59 687.579C2685.48 688.223 2688.38 688.877 2691.28 689.542C2691.69 689.65 2692.95 689.887 2693.36 690.004C2672.45 684.998 2653.03 689.052 2641.43 693.837C2630.93 698.226 2627.05 701.237 2622.68 704.387C2614.29 711.009 2613.45 712.795 2611.44 715.006C2609.74 717.079 2609.33 717.8 2608.99 718.327C2608.68 718.832 2608.68 718.913 2608.8 718.768C2609.36 718.114 2611.32 714.643 2613.12 710.884C2616.9 703.032 2620.81 693.291 2624.42 683.075C2631.67 662.591 2637.87 640.177 2642.76 617.871C2634.84 636.826 2626.01 655.32 2616.51 672.146C2653.13 561.783 2661.78 422.308 2612.61 355.73C2602.62 342.345 2593.17 330.529 2586.46 323.582C2583.19 320.122 2580.72 318.071 2580.68 317.657C2580.53 317.164 2583.68 318.414 2588.62 318.401C2562.17 314.804 2534.54 314.599 2517.18 317.913C2464.92 328.053 2431.92 346.818 2430.9 354.853C2412.3 409.692 2395.09 466.246 2384.12 520.176C2374.77 570.776 2367.07 627.118 2358.03 682.999C2356.95 689.585 2356.02 695.396 2354.39 703.863C2354.28 704.437 2354.16 705.01 2354.04 705.59C2353.91 706.22 2353.83 706.585 2353.61 707.625C2353.41 708.531 2353.2 709.485 2352.92 710.611C2352.78 711.175 2352.62 711.784 2352.43 712.474C2352.16 713.497 2351.68 715.267 2350.79 717.747C2350.33 719.029 2349.75 720.565 2348.76 722.706C2348.26 723.781 2347.66 725.012 2346.84 726.493C2346.43 727.235 2345.96 728.039 2345.41 728.923C2345.14 729.365 2344.85 729.827 2344.53 730.312C2344.45 730.433 2344.37 730.555 2344.28 730.679C2344.24 730.747 2344.21 730.785 2344.15 730.883C2343.98 731.12 2343.82 731.362 2343.65 731.61C2342.95 732.602 2342.16 733.68 2341.2 734.861C2337.3 739.335 2331.37 746.886 2315.97 752.729C2300.85 759.27 2275.33 754.932 2264 745.576C2251.94 736.682 2248.4 729.109 2245.81 724.323C2243.45 719.607 2242.31 715.448 2242.42 715.86C2241.63 713.325 2241.23 711.503 2240.92 709.993C2240.34 707.01 2240.16 705.225 2240.01 703.719C2239.87 702.323 2239.79 700.8 2239.79 700.541C2239.7 698.419 2239.7 696.828 2239.72 695.207C2239.77 693.084 2239.86 690.688 2239.96 688.904C2240.06 687.211 2240.16 685.4 2240.29 683.431C2246.45 636.607 2258.5 626.58 2263.79 608.426C2269.89 592.011 2273.68 576.609 2275.38 559.901C2278.83 526.761 2273.41 489.919 2262.42 452.657C2244.75 388.605 2216.68 322.708 2186.73 321.487C2173.08 318.439 2153.18 321.627 2123.67 324.496C2067.8 327.997 2013.93 329.686 1995.39 346.994C1993.67 348.403 1992.12 350.204 1991.44 351.254C1990.72 352.332 1990.96 352.464 1991.2 350.99C1981.37 438.987 1996.36 550.1 1989.42 654.875C1988.88 662.5 1989.03 671.811 1984.85 686.717C1981.44 701.517 1966.2 722.345 1951.32 730.113C1922.02 745.661 1905.26 743.945 1888.17 745.595C1841.64 747.848 1795.13 750.125 1747.55 750.294C1697.95 747.488 1658.15 758.23 1586.6 723.389C1572.6 715.316 1550.78 691.8 1549.92 663.217C1545.92 607.225 1543.41 551.238 1540.05 496.906C1537.17 444.372 1529.71 385.178 1514.1 374.886C1501.23 361.213 1495.63 357.083 1489.77 354.619C1484.12 352.237 1476.14 350.83 1464.71 351.285C1414.82 352.619 1364.77 352.45 1316.75 352.741C1293.05 352.972 1269.16 353.33 1250.33 355.574C1241.19 356.604 1233.25 358.664 1232.11 359.637C1231.51 360.051 1233.1 359.844 1235.92 357.828C1238.74 355.91 1241.88 352.102 1243.11 349.897C1226.48 380.823 1222.85 384.259 1220.09 393.564C1217.59 401.582 1216.6 410.485 1217.15 422.251C1220.05 526.869 1225.83 628.603 1233.62 732.919C1231.09 714.309 1228.48 696.056 1225.93 677.908C1217.7 660.72 1221.34 709.046 1219.02 705.464C1215.04 691.838 1211.06 678.257 1207.12 664.693C1207.78 692.137 1208.67 719.514 1209.26 747.742C1203.72 729.076 1198.02 710.862 1192.37 692.703C1193.11 720.238 1194.09 747.727 1194.19 776.497C1179.85 790.785 1179.45 701.088 1176.86 693.135C1169.24 667.193 1173.12 727.412 1168.44 720.863C1165.2 697.938 1161.93 675.179 1158.77 652.246C1155.92 661.755 1153.08 670.983 1150.25 680.493C1136.78 632.933 1121.84 648.599 1106.68 617.16C1099.5 552.351 1093.69 487.32 1089.04 421.346C1087.73 397.782 1090.05 371.28 1098.89 345.499C1106.77 320.658 1124.74 294.239 1124.48 290.839C1135.6 263.935 1165.33 241.392 1185.89 234.062C1207.13 225.634 1223.65 223.212 1238.75 221.023C1268.74 217.164 1293.81 216.431 1318.9 215.418C1368.72 213.719 1416.36 212.559 1464.64 210.141C1490.45 209.263 1522.2 212.674 1553.16 227.311C1584.15 241.382 1608.16 266.529 1619.26 277.763C1696.51 375.18 1676.22 442.652 1685.82 502.907Z" fill="white"/>
<path d="M3226.11 14.7294C3269.27 32.0157 3290.54 63.7419 3302.72 84.6753C3315.11 106.744 3321.49 125.06 3327.11 141.071C3353.93 248.826 3304.39 306.812 3276.12 352.553C3243.86 398.064 3207.22 434.817 3178.02 464.651C3136.71 507.468 3096.78 534.623 3063.09 558.265C3047.08 569.417 3021.55 586.552 3001.89 602.973C3002.63 601.135 3004.83 597.675 3006.91 590.154C3009.04 583.023 3009.37 570.86 3006.57 562.736C3003.89 554.326 3000.32 550.683 2998.73 549.571C2997.06 548.504 2996.92 549.604 2997.78 551.237C3001.86 558.693 3017.91 571.601 3034.05 583.023C3067.46 607.114 3105.57 628.397 3139.53 661.258C3139.76 661.376 3140.33 661.906 3140.56 662.03C3151.63 675.472 3164.29 689.777 3172.94 705.999C3182.69 725.719 3183.27 737.178 3184.44 747C3184.77 752.142 3187.4 755.991 3181.61 757.909C3178.13 751.555 3174.82 745.173 3171.56 738.7C3168.16 742.825 3164.76 746.933 3161.38 751.07C3156.53 743.23 3152.1 735.241 3146.99 728.403C3143.15 723.286 3138.65 718.477 3133.87 713.836C3137.29 720.07 3140.27 726.369 3142.23 732.515C3144.18 738.769 3145.63 745.557 3147.53 752.841C3144.59 752.218 3141.66 751.615 3138.79 751.119C3152.1 767.853 3151.72 788.613 3154.8 806.769C3151.17 817.163 3142.99 793.878 3141.18 791.518C3140.23 790.313 3126.25 790.522 3119.02 772.483C3123.19 783.84 3128.4 796.21 3133.57 807.844C3132.83 811.708 3132.08 815.55 3131.35 819.378C3124.91 810.382 3118.47 801.003 3112.32 791.493C3106.31 782.183 3100.14 772.137 3099.05 770.252C3096.85 772.302 3096.56 773.414 3097.43 776.118C3098.25 778.741 3100.25 783.045 3099.34 786.387C3098.06 791.315 3093.89 792.947 3090.43 795.288C3086.05 788.156 3082.9 783.087 3083.48 783.226C3083.69 782.524 3080.66 778.738 3075.03 773.557C3076.91 780.298 3077.31 786.185 3075.2 789.916C3074.4 787.73 3066.42 779.974 3056.09 770.572L3058.55 772.419C3048.21 760.092 3004.85 736.057 2968.01 711.733C2948.44 698.571 2928.34 685.744 2904.02 662.026C2892.36 649.394 2876.13 634.739 2866.59 599.938C2856.19 563.056 2876.55 523.516 2891.6 509.821C2913.5 488.825 2934.67 473.762 2955.08 458.996C2996.99 429.016 3038.06 400.857 3069.59 368.2C3102.38 334.116 3133.03 302.368 3156.89 268.093C3181.03 235.336 3194.74 194.591 3187.04 183.198C3184.18 174.959 3181.3 167.451 3178.33 161.19C3175.24 154.598 3171.81 149.339 3169.6 147.321C3168.53 146.297 3167.86 146.159 3168.11 146.716C3168.32 147.255 3169.58 148.412 3171.13 149.215C3141.83 141.071 3117.81 140.247 3105.51 146.609C3050.18 166.587 2993.16 206.678 2963.8 248.254C2965.24 244.015 2966.99 239.653 2968.96 235.267C2967.14 226.597 2959.74 236.054 2958.98 233.821C2959.03 228.936 2959.27 223.97 2959.69 218.944C2954.21 223.47 2949.02 228.114 2944.26 232.813C2943.81 226.014 2943.75 219.035 2944.09 211.896C2938.51 216.789 2933.24 221.829 2928.42 226.963C2914.64 219.663 2933.22 203.269 2933.85 200.228C2934.98 190.047 2923.37 203.258 2921.8 198.736C2924.94 192.251 2928.45 185.777 2932.24 179.361C2928.07 178.765 2923.93 178.202 2919.69 177.768C2923.41 158.725 2910.15 149.818 2909.91 131.667C2950.92 80.3021 3003.3 38.0081 3072.02 10.4414C3127.9 -8.51347 3180.62 2.38232 3216.87 11.5248C3220.01 12.4822 3223.07 13.5447 3226.11 14.7294Z" fill="white"/>
<path d="M302.271 1358.74C340.644 1304.75 391.687 1255.83 457.157 1218.14C533.122 1173.26 624.878 1123.83 715.859 1091.04C747.711 1079.25 781.974 1069.99 819.471 1066.84C838.017 1065.27 857.491 1065.46 875.673 1067.43C884.667 1068.38 893.407 1069.77 900.279 1071.06C906.814 1072.41 913.108 1073.23 907.722 1073.47C954.789 1073.66 985.271 1105.61 995.301 1121.6C1008.83 1142.27 1013.17 1159.23 1016.41 1175.31C1033.77 1235.13 1007.31 1359.73 973.026 1420.9C972.972 1421.25 972.583 1422.25 972.52 1422.6C928.184 1525.73 867.299 1621.78 828.706 1665.17C828.671 1665.27 828.502 1665.56 828.465 1665.67C821.381 1673.29 815.039 1679.33 809.605 1683.49C804.604 1687.34 801.759 1692.55 797.691 1687.75C802.694 1680.03 807.703 1672.29 812.706 1664.56C807.296 1663.89 801.885 1663.21 796.474 1662.53C798.362 1659.19 800.25 1655.85 802.139 1652.5L802.069 1652.65C809.744 1638.27 817.412 1623.79 824.89 1609.34C813.782 1622.15 802.522 1634.89 791.246 1647.56L791.443 1647.16C790.646 1648.01 789.848 1648.87 789.052 1649.72C788.806 1648.35 788.562 1646.97 788.317 1645.59L788.083 1646.07C787.657 1644.1 787.245 1642.09 786.846 1640.05C786.203 1641.64 785.54 1643.13 784.858 1644.56L785.129 1644C773.832 1666.21 755.345 1676.92 739.697 1689.52C728.276 1691.62 747.815 1670.38 749.279 1667.18C750.123 1665.33 744.103 1652.47 758.181 1634.05C748.997 1645.63 739.811 1657.22 730.626 1668.8C726.657 1670.15 722.675 1671.53 718.704 1672.88C727.645 1656.64 736.578 1640.42 745.514 1624.19L744.775 1625.72C748.063 1619.39 751.307 1613.14 754.527 1606.9C749.611 1605.45 744.754 1617.55 739.005 1623L739.812 1621.34C738.74 1622.31 737.646 1623.06 736.532 1623.46C731.255 1625.38 727.945 1622.25 724.237 1620.33C725.223 1618.56 726.209 1616.8 727.196 1615.03L726.24 1617C735.498 1599.48 744.509 1582.29 753.25 1565.07C745.877 1571.47 738.471 1577.82 731.024 1584.16C767.328 1515.12 803.31 1448.35 834.063 1379.15L833.453 1381.19C865.248 1305.44 885.441 1270.73 876.261 1208.4C876.227 1207.87 876.192 1207.38 876.156 1206.92C876.039 1204.13 875.339 1202.18 877.169 1204.29C878.204 1205.33 879.998 1207.76 885.009 1211.15C889.763 1214.51 899.382 1218.14 908.013 1217.7C882.341 1215.76 876.947 1212.61 865.81 1211.5C855.813 1210.19 845.969 1209.87 835.513 1210.58C814.714 1211.97 792.36 1217.49 769.869 1225.78C685.843 1256.56 606.916 1299.8 527.399 1346.6C501.851 1361.45 478.069 1380 457.218 1400.46C439.188 1418.17 423.076 1437.68 409.762 1458.3C374.793 1512.5 352.817 1578.12 335.308 1646.25C325.622 1688.44 324.656 1740.44 329.269 1788.55C327.38 1782.08 325.597 1775.5 323.916 1768.86C316.515 1762.13 317.887 1779.7 315.767 1778.28C312.382 1773.2 309.061 1767.99 305.799 1762.75C305.12 1772.83 304.666 1782.92 304.459 1792.95C299.44 1786.2 294.535 1779.23 289.742 1772.11C289.228 1782.4 288.942 1792.72 288.931 1802.89C273.957 1808.41 276.042 1774.63 274.238 1771.34C267.847 1760.9 268.935 1784.25 264.615 1781.52C262.319 1772.51 260.197 1763.45 258.251 1754.27C254.912 1757.7 251.597 1761.17 248.308 1764.71C237.31 1744.88 221.63 1749.8 208.32 1735.37C203.376 1693.54 201.612 1650.41 210.588 1602.52C223.386 1528.89 243.527 1450.26 292.62 1373.02C295.74 1368.19 298.96 1363.43 302.271 1358.74Z" fill="white"/>
<path d="M1046.05 1457.08C1065.73 1332.94 1116.6 1209.93 1159.89 1101.89C1185.55 1007.07 1295.13 899.123 1368.43 861.851C1432.1 821.97 1498.34 816.659 1554.57 819.938C1641.58 826.947 1684.28 887.319 1706.2 916.44C1750.39 988.376 1743.45 1025.72 1748.41 1066.89C1750.45 1106.54 1749.25 1143.07 1747.25 1178.68C1743.05 1249.76 1735.03 1317.08 1727.06 1382.15C1717.93 1449.28 1712.11 1519.04 1679.92 1597.62C1679.43 1598.59 1678.65 1600.41 1677.71 1602.94C1677.23 1604.25 1676.73 1605.64 1675.96 1607.87C1675.54 1609.07 1675.17 1610.2 1674.09 1613.18C1673.8 1613.97 1673.47 1614.87 1672.87 1616.4C1672.19 1618.03 1671.77 1619.41 1669.09 1624.85C1667.1 1627.99 1667.76 1630.1 1655.41 1644.97C1650.77 1649.96 1644.42 1656.91 1630.5 1664.6C1624.52 1668.12 1604.53 1676.63 1583.73 1675.43C1563.04 1675.59 1538.03 1662.71 1530.6 1655.85C1511.69 1640.32 1506.41 1627.11 1502.69 1618.85C1500.17 1612.59 1499.48 1609.8 1498.6 1606.47C1497.81 1603.37 1497.35 1600.91 1497 1598.81C1496.73 1597.16 1496.59 1596.1 1496.45 1594.95C1496.18 1592.73 1496.04 1590.99 1495.94 1589.5C1495.81 1587.28 1495.77 1585.65 1495.76 1584.25C1496.66 1528.07 1510.84 1484.97 1523.68 1447.04C1538.99 1402.73 1561.92 1350.16 1583.76 1290.43C1624.04 1181.46 1697.41 1077.24 1799.03 986.227C1887.82 908.357 1997.46 922.933 2071.83 929.621C2101.65 931.531 2124.71 948.766 2136.68 961.98C2149.28 975.651 2156.24 988.314 2161.63 998.057C2164.37 1002.12 2168.32 1014.61 2169.25 1019.42C2183.31 1285.1 2065.59 1481.09 2020.25 1554.9C2020.25 1554.9 2020.24 1554.91 2020.24 1554.92C2018.52 1557.48 2016.89 1559.83 2015.3 1562.08C2006.98 1574.01 1999.99 1587.81 1997.59 1579.52C2002.66 1570.1 2007.34 1560.68 2012.12 1551.25C2017.86 1539.84 2023.36 1528.64 2028.82 1517.17C2022.29 1519.39 2015.76 1521.59 2009.21 1523.78C2030.31 1477.62 2049.25 1430.63 2065.47 1382.61C2047.4 1422.82 2027.36 1462 2005.82 1500.17C2006.57 1493.02 2007.32 1485.78 2007.95 1478.7C1999.52 1500.97 1990.1 1519.77 1980.07 1536.81L1980.09 1536.77C1970.57 1552.85 1960.78 1568.1 1952.06 1576.06C1943.12 1583.82 1939.09 1582.27 1926.82 1585.34C1918.5 1584.04 1929.55 1578.99 1934.33 1576.24C1936.72 1574.91 1938.44 1574.15 1941.2 1571.16C1943.84 1568.32 1946.53 1564.24 1947.29 1562.7C1948.56 1560.23 1947.92 1550.03 1956.5 1526.11L1956.47 1526.18C1960.36 1515.31 1965.94 1502.18 1974.07 1486.34C1967.36 1499.18 1960.45 1511.96 1953.32 1524.77L1953.35 1524.69C1943.21 1543.2 1931.19 1564.15 1927.54 1564.56C1924.54 1563.44 1923.3 1560.62 1920.29 1559.11C1921 1558.73 1921.19 1558.63 1921.16 1558.73C1921.14 1558.82 1920.94 1559.1 1921.02 1559.1C1921.12 1559.2 1922.57 1557.53 1924.78 1553.69C1929.26 1545.98 1935.44 1532.59 1941.66 1519.41L1941.62 1519.5C1956.19 1488.49 1969.77 1457.09 1982.12 1425.42C1975.86 1425.5 1961.93 1467.22 1951.65 1477.51C1944.32 1484.97 1941.52 1480.36 1937.73 1478.62C1959.1 1430.72 1977.92 1382 1993.36 1332.7C1983.39 1352.2 1972.89 1371.43 1961.91 1390.41C2005.41 1273.38 2035.53 1148.65 2026.61 1039.53L2038.44 1072.71C2034.38 1065.02 2032.05 1061.88 2033.81 1063.24C2034.81 1063.92 2037.23 1066.08 2042.45 1068.69C2047.52 1071.29 2055.9 1073.86 2063.9 1074C1987.12 1065.7 1928.28 1065.75 1898.47 1091.83C1823.65 1156.72 1755.61 1244.4 1720.83 1334.75C1707.49 1371.61 1692.97 1407.33 1679.33 1442C1659.85 1491.89 1641.01 1541.79 1640.14 1582.73C1640.13 1582.14 1640.11 1581.38 1640.04 1580.25C1639.99 1579.49 1639.91 1578.57 1639.76 1577.36C1639.68 1576.73 1639.61 1576.17 1639.45 1575.22C1639.25 1574.04 1638.99 1572.65 1638.53 1570.87C1638.3 1569.98 1638.03 1568.99 1637.67 1567.87C1637.49 1567.32 1637.29 1566.72 1637.06 1566.1C1636.81 1565.41 1636.68 1565.03 1636.08 1563.57C1633.86 1558.74 1630.65 1550.87 1619.24 1541.87C1613.92 1537.3 1599.31 1530.65 1587.36 1531.11C1575.52 1530.8 1563.96 1536.21 1561.46 1537.78C1553.64 1542.25 1550.1 1546.19 1547.51 1549.01C1540.73 1557.26 1541.11 1558.38 1540.07 1560.02C1538.71 1562.8 1538.62 1563.26 1538.37 1563.85C1538.18 1564.36 1538.13 1564.54 1538.1 1564.64C1538.05 1564.82 1538.13 1564.63 1538.22 1564.38C1538.32 1564.12 1538.45 1563.76 1538.59 1563.37C1539.16 1561.75 1539.87 1559.65 1540.63 1557.49C1542.17 1553.16 1543.91 1548.44 1546.06 1543.35C1567.04 1495.09 1574.98 1430.9 1582.99 1366.79C1596.69 1242.06 1620.81 1080.57 1588.08 1001.96C1570.96 977.46 1554.73 965.193 1545.25 965.678C1507.76 963.22 1471.53 969.166 1446.87 985.307C1368.66 1031.77 1323.43 1076.83 1296.47 1154.57C1273.86 1212.51 1251.82 1263.84 1233.26 1317.35C1196.41 1423.72 1165.69 1543.24 1192.35 1630.73C1192.8 1631.93 1193.36 1632.92 1193.52 1632.97C1193.61 1633.02 1193.57 1632.09 1190.62 1629.04C1187.95 1626.31 1179.78 1619.83 1166.62 1618.94C1153.41 1618.1 1144.34 1623.51 1141.46 1625.58C1206.32 1575.85 1270.38 1519.48 1289.83 1467.19C1295.81 1451.4 1300.65 1435.95 1302.3 1424.9C1303.19 1419.64 1302.81 1415.26 1302.55 1417.14C1302.53 1418.11 1302.62 1421.13 1304.93 1426.4C1307.1 1431.59 1312.55 1438.7 1318.48 1442.8C1311.46 1439.31 1307.56 1439.75 1301.73 1441.86C1194.31 1471.8 1087.02 1502.36 981.14 1533.36C998.485 1526.96 1015.89 1520.58 1033.33 1514.19C1048.63 1502.46 1001.65 1516.34 1004.7 1513.3C1017.25 1506.52 1029.92 1499.72 1042.43 1492.96C1015.49 1499.52 988.478 1506.12 961.594 1512.73C978.356 1503.3 994.908 1493.94 1011.65 1484.54C984.787 1491.12 957.803 1497.74 931.063 1504.4C913.543 1493.45 1000.44 1473.53 1007.95 1469.47C1032.02 1456.47 973.351 1473.11 978.955 1467.12C1000.74 1459.09 1022.54 1451.07 1044.4 1443.05C1034.5 1442.29 1024.68 1441.52 1014.8 1440.77C1058.71 1417.43 1040.11 1406.19 1067.58 1384.57C1134.9 1361.48 1202.89 1338.77 1271.56 1316.56C1310.51 1304.49 1358.2 1311.46 1393.25 1334.16C1421.28 1351.85 1432.89 1384.94 1434.8 1403.78C1437.28 1423.95 1435.45 1438.61 1433.46 1451.98C1429.12 1478.33 1422.16 1499.36 1415.26 1519.31C1370.61 1627.54 1292.87 1683.98 1226.39 1739.7C1213.41 1749.73 1189.5 1762.75 1158.72 1761.23C1128.02 1759.78 1105.11 1744.54 1092.61 1732.84C1067.58 1708.26 1061.37 1689.55 1054.86 1670.85C1030.97 1593.77 1036.14 1522.63 1046.05 1457.08Z" fill="white"/>
<path d="M2596.62 1453.98C2596.8 1453.78 2597.15 1453.51 2597.62 1453.16C2598.25 1452.41 2596.87 1452.57 2595.39 1453.47C2593.89 1454.32 2592.79 1455.53 2592.85 1454.72C2593.01 1453.42 2595.75 1443.11 2596.89 1428.34C2599.56 1398.39 2598.74 1355.02 2601.47 1308.92C2604.14 1262.41 2605.92 1214.83 2607.8 1165.85C2608.77 1141.33 2609.74 1116.46 2611.36 1090.4C2614.01 1062.3 2611.91 1043.18 2625.69 993.021C2677.03 862.538 2776.38 836.568 2838.06 806.806C2917.21 777.631 2962.76 791.739 3006.34 796.453C3011.63 797.298 3017.21 798.245 3023.02 799.285C3045.14 800.881 3084.36 819.766 3100.99 845.99C3118.04 870.994 3120.37 888.4 3123.07 898.706C3140.4 993.134 3120.9 1070.29 3105.54 1159.33C3105.49 1160.85 3104.44 1165.26 3104.23 1166.76C3049.34 1337.28 2993.23 1519.21 2942.76 1587.08C2941.67 1589.41 2937 1592.98 2934.74 1594.19C2929.15 1596.1 2923.11 1595.44 2919.42 1593.97C2915.59 1592.52 2913.23 1590.64 2911.42 1588.96C2902.64 1579.9 2898.82 1573.02 2905.25 1572.03C2907.71 1575.22 2910.37 1578.39 2913.99 1581.29C2917.38 1583.94 2923.41 1587.67 2930.79 1584.96C2931.72 1584.46 2933.62 1583.01 2934.07 1582.06C2937.37 1577.15 2939.83 1572.13 2942.13 1567.17C2936.41 1567.81 2930.68 1568.33 2924.99 1568.51C2935.9 1544 2943.62 1516.08 2951.85 1489.26C2940.66 1511.63 2929.55 1534.08 2917.22 1554.29C2916.48 1550.17 2915.61 1546.19 2914.76 1541.99C2912.05 1552.19 2907.81 1561.53 2904.09 1564.71L2917.17 1553.12C2920.41 1551.4 2924.84 1550.75 2927.65 1550.93C2930.57 1551.07 2932.18 1551.55 2933.13 1551.67C2934.96 1551.99 2934.77 1551.27 2934.59 1550.11C2934.05 1547.73 2932.79 1543.83 2931.87 1539.84C2929.89 1531.68 2928.45 1522.58 2926.76 1513.55C2930.24 1501.6 2941.3 1534.75 2942.94 1535.31C2943.3 1535.72 2945.7 1536.08 2947.69 1535.58C2948.53 1535.25 2949.67 1534.75 2947.64 1532.35C2946.48 1531.16 2944.56 1529.19 2938.49 1526.87C2932.98 1524.58 2919.1 1522.46 2906.41 1527.97L2880.41 1551.01C2879.9 1551.26 2881.68 1547.99 2884.63 1542.62C2882.07 1547.11 2879.17 1551.07 2878.56 1549.94L2905.57 1526C2915.39 1521.25 2928.35 1520.79 2935.64 1522.4C2943.23 1523.91 2947.01 1525.97 2949.42 1527.1C2954.01 1529.49 2954.23 1529.57 2954.4 1528.89C2954.32 1527.38 2952.24 1523.1 2950.39 1518.5C2951.12 1514.33 2951.85 1510.02 2952.6 1505.62C2956.07 1511.76 2959.77 1517.57 2961.73 1520.32C2962.17 1520.97 2962.47 1521.39 2962.35 1521.35C2962.21 1521.3 2961.72 1520.81 2959.86 1519.4C2957.88 1518.06 2954.89 1515.4 2945.99 1512.04C2937.95 1508.64 2917.32 1505.74 2900.28 1513.62L2866.91 1543.2C2866.23 1544.7 2867.09 1543.47 2868.11 1541.11C2869.16 1538.73 2870.39 1535.58 2871.67 1532.01C2874.2 1525.02 2876.8 1517.02 2879.36 1508.87C2873.28 1508.58 2868.59 1532.15 2861.81 1534.87C2856.93 1537.05 2853.29 1534.24 2849.36 1532.84C2857.09 1514.18 2866.47 1481.93 2874.75 1453.77C2867.65 1464.98 2860.58 1475.9 2853.45 1486.59C2888.41 1370.62 2925.46 1251.26 2962.93 1133.78L2961.47 1142.06C2975.59 1070.45 2991.08 987.722 2984.23 936.914C2983.26 931.856 2982.46 928.646 2982.83 928.75C2983.13 928.596 2985.72 933.474 2992.3 937.742C2997.54 941.2 3003.21 942.299 3005.32 942.239C2964.28 934.403 2918.5 930.386 2897.95 938.453C2836.82 963.172 2776.94 995.912 2764.29 1037.33C2750.86 1110.22 2754.22 1224.35 2747.5 1319.49C2744.04 1368.48 2748.5 1417.36 2737.01 1478.23C2731.38 1514.2 2702.14 1567.15 2656.91 1585.76C2633.19 1596.95 2598.96 1606.48 2561.56 1593.13C2507.8 1572.86 2483.16 1531.56 2463.82 1506.59C2454.26 1493.54 2445.56 1482.53 2439.37 1477.43C2436.34 1474.85 2434.25 1474 2433.87 1474.28C2433.41 1474.56 2434.76 1475.5 2435.17 1475.91C2412.54 1475.19 2390.27 1476.36 2371.34 1480.1C2352.97 1482.96 2335.98 1493.23 2341.51 1492.3C2302.01 1533.88 2258.56 1573.06 2216.36 1608.42C2223.55 1600.69 2231.03 1592.7 2238.45 1584.62C2242.02 1572.31 2220.57 1591.07 2221.02 1587.93C2225.31 1580.35 2229.61 1572.69 2233.85 1565.01C2221.03 1574.63 2207.97 1584.04 2195.6 1592.94C2200.78 1582.85 2206.37 1572.49 2211.75 1562.13C2199.13 1571.45 2185.99 1580.72 2174.69 1589.11C2159 1582.09 2199.88 1554.41 2202.55 1549.63C2210.42 1535.29 2184.17 1557.28 2184.6 1551.37C2193.52 1541.68 2202.43 1531.88 2211.15 1521.97C2205.09 1522.71 2199.04 1523.4 2193.02 1524.03C2207.05 1498.2 2190.92 1491.12 2195.57 1469.14C2216.21 1446.35 2236.09 1423.04 2255.11 1399.18C2326.13 1336.84 2387.48 1342.72 2447.76 1339.24C2484.61 1340.04 2520.07 1361.46 2538.87 1379.49C2558.74 1397.9 2570.52 1414.14 2581.01 1427.1C2600.9 1454.08 2617.01 1463.58 2613.27 1458.28C2608.12 1455.79 2602.75 1454.91 2599.89 1454.7C2596.92 1454.47 2596.12 1454.54 2596.62 1453.98Z" fill="white"/>
<path d="M2481.93 1154.06C2535.6 1143.36 2599.14 1123.06 2663.21 1098.95C2734.18 1071.87 2810.61 1053.35 2872.22 1034.89C2932.38 1016.44 2989.32 1002.42 3036.48 986.876C3068.7 975.8 3099.76 967.98 3128.53 961.852C3155.4 956.061 3193.98 949.119 3237.99 941.367C3275.14 934.175 3313.68 932.155 3352.94 933.893C3372.55 934.799 3392.38 936.653 3412.65 939.795C3422.83 941.386 3433.04 943.265 3444.1 945.857C3449.55 947.156 3455.32 948.628 3461.82 950.627C3468.89 953.117 3474 953.597 3490.29 962.717C3508.59 970.663 3519.52 999.147 3520.42 1019.08C3500.36 1136.27 3433.2 1207.98 3404.55 1250.27L3404.73 1249.82C3396.53 1261.21 3390.73 1268.19 3386.82 1273.68C3383.63 1277.98 3384.36 1283.56 3378.29 1281.99C3378.13 1272.84 3381.17 1264.46 3385.28 1255.68C3379.8 1255.83 3374.3 1256.08 3368.76 1256.69C3370.95 1250.33 3373.52 1244.47 3376.09 1238.65C3376.1 1238.63 3376.12 1238.56 3376.14 1238.53C3382.94 1223.98 3390.26 1209.77 3397.63 1195.67C3387.06 1208.29 3376.52 1221.04 3366.35 1234.49C3366.32 1234.55 3366.26 1234.75 3366.23 1234.81C3364.18 1237.63 3362.12 1240.51 3360.08 1243.58C3359.26 1239.77 3358.49 1236.01 3357.71 1232.34C3353.02 1246.83 3343.77 1261.78 3341.05 1282.15C3338.5 1301.9 3340.02 1317.67 3341.49 1331.27C3339.43 1337.48 3335.99 1331.75 3332.9 1322.39C3329.7 1313.28 3327.72 1298.52 3327.19 1294.91C3326.89 1292.93 3322.69 1288.16 3320.37 1276.01C3317.83 1264.02 3320.16 1244.89 3327.61 1231.57C3323.01 1240.12 3317.11 1251.83 3314.3 1269.11C3311.42 1286.42 3313.82 1304.64 3316.8 1317.4C3315.84 1323.59 3315.06 1329.43 3314.32 1335.04C3308.4 1320.71 3299.74 1296.88 3302.14 1268.52C3304.93 1240.85 3312.72 1226.71 3317.05 1215.64C3317.18 1215.39 3317.43 1214.58 3317.57 1214.34C3320.22 1208.46 3322.92 1202.71 3325.63 1197.09C3321.73 1196.15 3317.42 1204.83 3312.85 1212.39C3312.7 1212.65 3312.43 1213.52 3312.29 1213.78C3310.03 1217.62 3307.52 1221.59 3304.84 1223.66C3299.13 1228.19 3295.64 1225.06 3291.74 1223.53C3294.03 1217.44 3296.11 1212.58 3298 1208.21C3298.16 1207.89 3298.5 1206.85 3298.67 1206.53C3308.15 1185.78 3317.95 1166.96 3327.07 1149.36C3319.11 1156.72 3311 1164.38 3302.77 1172.56C3338.04 1104.59 3366.49 1059.18 3376.02 1009.35L3418.15 1088.18C3425.71 1092.12 3427.38 1092.01 3428.45 1092.25C3429.47 1092.36 3429.3 1092.07 3428.88 1091.77C3427.92 1091.11 3425.63 1090.24 3423.06 1089.43C3417.83 1087.78 3411.24 1086.24 3404.5 1084.91C3390.9 1082.24 3376.25 1080.3 3361.56 1079.05C3332.17 1076.59 3302.17 1076.8 3274.95 1080.82C3246.41 1085.73 3218.06 1090.53 3190.46 1095.88C3155.7 1102.65 3121.82 1110.45 3089.39 1121.43C3030.55 1141.6 2972.8 1155.83 2917.12 1173.32C2844.89 1195.37 2776.79 1212.02 2712.36 1236.85C2669.74 1252.86 2626.66 1267.45 2582.91 1279.45C2509.27 1295.81 2437.9 1325.13 2333.65 1287.45C2322.23 1282.1 2311.47 1275.62 2300.45 1265.84C2290.07 1255.34 2275.84 1244.68 2269.34 1210.84C2265.48 1183.57 2276.12 1162.42 2282.14 1152.06C2288.72 1140.99 2293.67 1135.03 2296.8 1130.44C2352.52 1059.48 2403.61 1009.78 2472.13 954.747C2464.89 961.762 2458.4 968.647 2452.17 975.526C2449.59 986.78 2467.92 971.23 2467.73 974.142C2464 980.978 2460.65 987.701 2457.41 994.433C2468.17 986.788 2479.03 979.372 2491.45 971.84C2485.89 981.234 2481.32 990.417 2477.06 999.579C2487.88 992.192 2498.72 985.03 2511.96 977.862C2524.43 987.299 2487.07 1008.21 2485.84 1012.38C2479.88 1024.81 2501.5 1007.43 2501.45 1012.97C2494.08 1020.9 2487.14 1028.94 2480.4 1037.06C2485.54 1037.13 2490.76 1037.19 2495.85 1037.38C2485.86 1059.52 2500.41 1068.02 2498.42 1087.59C2463.21 1129.45 2425.02 1175.89 2401.52 1216.55C2398.13 1221.9 2396.39 1225.73 2398.18 1224.58C2399.04 1223.92 2400.96 1221.75 2403.1 1216.47C2405.23 1211.34 2407.11 1202.36 2406.25 1193.28C2402.42 1168.8 2397 1167.79 2396.58 1164.92C2395.63 1162.87 2396.53 1162.66 2397.13 1161.99C2407.72 1163.06 2445.32 1162.03 2481.93 1154.06Z" fill="white"/>
<path d="M1653.84 1843.41C1721.84 1841.7 1791.92 1840.14 1861.73 1837.84C1894.15 1836.75 1926.45 1835.62 1958.75 1834.3C1974.9 1833.63 1991.18 1832.91 2006.78 1832.05C2014.47 1831.62 2022.31 1831.14 2029.06 1830.57C2032.04 1830.33 2035.85 1829.91 2035.41 1829.91C2035.3 1829.92 2035.03 1829.95 2034.56 1830.03C2034.15 1830.09 2033.29 1830.22 2031.87 1830.51C2030.67 1830.78 2028.11 1831.25 2023.15 1832.84C2021.05 1833.55 2015.16 1835.41 2007.18 1839.8C2004.99 1841.11 1993.38 1847.01 1981.56 1860.49C1978.53 1863.96 1975.39 1868.06 1972.36 1872.94C1970.85 1875.37 1969.36 1878.01 1967.96 1880.83C1966.41 1883.91 1964.17 1889.07 1962.67 1893.75C1955.95 1913.07 1956.89 1938.06 1963.37 1955.29C1970.84 1974.62 1975.47 1978.73 1980.85 1985.67C1986.03 1991.71 1990.58 1995.66 1994.4 1998.69C1996.25 2000.15 1998.25 2001.59 1999.48 2002.42C2000.58 2003.17 2001.6 2003.84 2002.57 2004.45C2004.51 2005.66 2006.2 2006.63 2007.71 2007.46C2014.04 2010.81 2016.2 2011.5 2018.41 2012.4C2020.58 2013.22 2021.7 2013.58 2022.64 2013.89C2023.57 2014.2 2024.23 2014.39 2024.64 2014.51C2025.51 2014.77 2025.77 2014.84 2025.77 2014.84C2025.76 2014.84 2025.47 2014.77 2024.96 2014.65C1968.9 2001.94 1829.97 2055.01 1721.33 2107.32C1613.46 2155.82 1518.16 2314.26 1489.53 2436.91C1486.85 2450.66 1488.78 2455.22 1486.92 2443.45C1485.26 2434.98 1480.09 2425.3 1475.36 2420.08C1470.6 2414.65 1467.27 2412.9 1466.52 2412.46C1510.42 2440.3 1640.95 2415.32 1752.86 2381.97C1844.3 2356.95 1931.55 2319.92 2024.79 2280.27C2168.59 2222.6 2292.36 2181.35 2449.46 2151.16C2536.29 2140.47 2622.66 2136.52 2709 2143.22C2726.15 2144.93 2747.12 2146.34 2776.62 2163.19C2807.75 2178.42 2831.3 2226.78 2832.44 2241.16C2832.92 2243.14 2833.37 2245.12 2833.77 2247.09C2842.06 2388.41 2765.51 2430.24 2705.66 2492.99C2656.91 2536.3 2596.34 2576.62 2528.76 2607.97C2496.88 2625.27 2452.45 2616.53 2435.17 2605.89C2415.58 2595.44 2405.84 2585.58 2397.08 2576.98C2273.73 2445.63 2314.22 2273.15 2344.59 2145.68C2360.35 2078.82 2396.78 2008.81 2438.78 1956.81C2479.66 1905.79 2515.7 1848.06 2571.18 1792.03C2662 1710.53 2756.86 1717.02 2837.07 1709.75C2919.12 1706.29 2996.73 1708.1 3071.91 1709.4C3165.33 1704.82 3240.81 1782.1 3276.01 1828.12C3341.86 1911.77 3348.04 1996.08 3355.8 2067.96C3362.96 2190.42 3357.23 2284.3 3349.81 2340.58C3346.45 2366.03 3344.11 2392.75 3339.16 2381.22C3342.9 2340.33 3344.03 2299.32 3344.24 2258.37C3339.26 2266.59 3334.24 2274.76 3329.17 2282.86C3329.13 2212.68 3326.55 2142.09 3319.59 2072.4C3317.47 2053.27 3314.62 2034.22 3310.91 2015.36C3313.58 2034.44 3315.37 2053.61 3316.43 2072.78C3319.11 2130.59 3318.36 2189.12 3316.17 2247.03C3313.78 2234.85 3311.3 2222.7 3308.73 2210.58C3312.3 2278.17 3308.75 2334.5 3300.34 2383.48C3300.32 2383.67 3300.29 2384.23 3300.28 2384.42C3296.05 2413.84 3289.73 2442.22 3279.98 2457.86L3282.49 2452.62C3281.22 2453.85 3279.82 2454.76 3279.37 2454.48C3279.05 2454.3 3279.27 2452.31 3285.44 2449.51C3290.08 2446.84 3294.51 2446.17 3294.2 2445.5C3294.21 2444.87 3289.83 2444.34 3284.94 2445.54C3280 2446.68 3276.35 2449.17 3275.44 2450.01C3274.4 2450.94 3275.21 2450.34 3276.09 2449L3273.14 2455.14C3280.47 2440.65 3285.67 2400.31 3285.9 2392.59C3285.98 2390.9 3285.68 2388.03 3285.19 2383.71C3285.21 2383.44 3285.25 2382.63 3285.27 2382.35C3283.69 2365.41 3280.09 2326.27 3281.53 2247.03C3280.5 2292.66 3278.33 2338.53 3273.01 2381.44C3272.97 2381.78 3272.93 2382.8 3272.91 2383.14C3271.3 2399.7 3269.31 2415.51 3266.36 2428.73C3262.32 2437.36 3257.62 2444.58 3253.59 2447.34L3257.77 2438.63C3257.56 2438.43 3257.38 2438.21 3257.24 2437.93C3257.16 2438.06 3257.12 2438.16 3257.08 2438.24L3252.86 2447.05C3257.44 2437.27 3261.09 2409.77 3262.41 2382.65C3262.44 2382.25 3262.49 2381.05 3262.53 2380.66C3268.44 2304.51 3266.18 2221.47 3261.38 2141.03C3255.99 2145.44 3262.54 2224.51 3257.47 2248.58C3254.03 2266.17 3249.51 2260.56 3245.35 2260.42C3244.64 2201.14 3241.93 2138.36 3236.25 2082.6C3232.79 2051.3 3227.17 2020.54 3219.04 1992.36C3224.09 2021.47 3226.45 2052.53 3226.68 2083.77C3226.67 2087.99 3226.68 2092.81 3226.64 2097.41C3226.22 2092.86 3225.76 2088.09 3225.31 2083.94C3219.02 2018.7 3197.27 1946.56 3175.12 1922.36C3121.98 1862.31 3113.93 1853.59 3073.73 1850.99C2925.33 1851.41 2729.97 1843.19 2675.6 1892.54C2636.97 1930.05 2598.83 1988.07 2555.39 2043.19C2520.65 2086.98 2499.14 2127 2485.74 2178.62C2455.62 2292.48 2439.11 2415.61 2498.57 2474.47C2501.21 2477.49 2503.79 2479.01 2500.38 2477.26C2498.61 2476.48 2494.67 2474.66 2487.63 2474.09C2480.72 2473.4 2471.19 2475.34 2465.35 2478.48C2517.63 2454.47 2565.75 2424.22 2608.53 2386.69C2632.3 2365.84 2654.72 2343.09 2671.41 2320.32C2687.51 2300.08 2694.16 2275.23 2692.75 2276.61C2692.08 2273.54 2692.36 2275.76 2694.58 2279.11C2696.73 2282.56 2700.8 2286.04 2703.07 2287.18C2707.9 2289.45 2704.93 2287.38 2699.81 2287.12C2624.84 2281.19 2546.81 2284.73 2469.07 2294.35C2346.46 2317.82 2206.63 2362.55 2082.17 2413.5C1990.13 2452.76 1893.73 2494.07 1792.51 2521.94C1673.89 2550.39 1544.48 2607.17 1395.99 2540.24C1375.65 2529.67 1350.38 2505.87 1344.17 2474.17C1338.94 2447.93 1343.25 2428.67 1345.24 2414.25C1391.3 2230.71 1484.6 2065.19 1659.22 1974.73C1781.49 1923.17 1894.79 1850.59 2060.41 1872.84C2061.32 1873.07 2062.48 1873.34 2064.34 1873.85C2065.27 1874.1 2066.4 1874.42 2068.04 1874.96C2068.79 1875.21 2069.9 1875.59 2071.25 1876.12C2071.93 1876.38 2072.68 1876.69 2073.52 1877.07C2074.45 1877.48 2075.81 1878.11 2077.31 1878.92C2078.93 1879.82 2080.27 1880.54 2083.15 1882.59C2086.42 1885.05 2090.97 1888.49 2096.08 1896.23C2102.15 1902.68 2108.24 1930.47 2099.06 1945.45C2093.78 1956.04 2087.48 1961.14 2083.18 1964.35C2082.07 1965.16 2081.04 1965.84 2080.08 1966.43C2079.4 1966.85 2078.94 1967.12 2078.41 1967.42C2077.38 1968.01 2076.43 1968.5 2075.56 1968.93C2073.81 1969.78 2072.34 1970.39 2071.05 1970.88C2070.43 1971.12 2069.72 1971.38 2069.31 1971.52C2068.93 1971.64 2068.57 1971.76 2068.23 1971.88C2067.53 1972.1 2066.89 1972.29 2066.29 1972.46C2065.12 1972.8 2063.91 1973.1 2063.17 1973.27C2062.47 1973.43 2061.81 1973.57 2061.18 1973.7C2060.55 1973.83 2059.95 1973.95 2059.36 1974.05C2058.79 1974.16 2058.44 1974.22 2057.99 1974.29C2051.21 1975.36 2047.51 1975.63 2043.07 1976.04C2034.95 1976.74 2027.41 1977.2 2019.77 1977.64C2005 1978.48 1990.11 1979.13 1975.53 1979.73C1938.26 1981.25 1902.16 1982.42 1864.98 1983.58C1580.34 1991.71 1294.81 1991.97 1016.74 2012.23C863.833 2026.66 709.85 2037.82 613.028 2125.68C550.152 2177.81 490.267 2235.19 472.106 2289.02C449.177 2352.77 427.587 2416.22 412.958 2477.56C405.728 2508.1 400.314 2538.39 399.104 2564.58C396.75 2590.29 405.413 2613 403.395 2605.26C404.411 2613.37 394.589 2592.4 395.177 2567.91C392.282 2555.56 389.69 2566.55 388.852 2578.9C387.921 2591.58 389.835 2602.15 388.444 2600.5C382.696 2587.89 379.579 2567.45 378.76 2546.25C372.17 2584.31 380.946 2623.16 384.876 2621.46C387.443 2623.7 390.035 2625.92 392.656 2628.12C389.648 2626.38 386.66 2624.62 383.688 2622.82C378.292 2625.89 365.428 2609.89 360.882 2586.45C361.22 2609.9 367.931 2628.17 374.729 2633.09C389.352 2645.99 401.337 2654.49 421.777 2671.06C429.679 2683.67 416.098 2674.06 406.199 2669.37C395.293 2663.48 380.9 2654.07 366.454 2642.58C349.498 2632.52 346.082 2592.45 345.365 2586.9C341.979 2566.18 340.061 2579.95 340.437 2597.18C340.534 2614.77 347.004 2632.33 343.255 2628.67C329.308 2598.01 330.504 2555.96 334.773 2516.66C328.879 2532.11 323.611 2547.89 319.546 2564.13C317.031 2478.47 300.034 2501.78 299.287 2441.69C314.092 2373.96 334.617 2308.72 355.936 2244.29C392.387 2144.48 465.916 2082.19 531.569 2023.49C668.991 1901.06 852.978 1891.29 1007.53 1873.24C1221.95 1854.2 1435.78 1849.2 1653.84 1843.41Z" fill="white"/>
<path d="M1331.09 3740.86C1403.2 3668.95 1507.01 3589.1 1602.8 3542.97C1605 3541.91 1607.37 3540.79 1609.88 3539.62L1604.17 3543.72C1640.37 3523.81 1714.44 3481.89 1783.41 3457.95L1782.06 3458.86C1818.84 3444.58 1856.79 3437.16 1873.74 3442.26C1877.66 3443.29 1880.6 3442.01 1882.11 3447.74C1877.33 3449.09 1872.58 3450.47 1867.83 3451.9C1871.16 3455.94 1874.43 3460.02 1877.71 3464.09C1868.02 3468.18 1858.4 3472.5 1848.96 3477.13C1859.37 3476.74 1869.71 3476.72 1879.96 3476.95C1879.72 3479.44 1879.5 3481.92 1879.27 3484.4C1890.78 3476.3 1905.27 3483.2 1917.99 3486.76C1925.25 3493.47 1909.36 3492.58 1907.84 3493.54C1907 3494.07 1908.23 3505.91 1896.55 3507.34C1904.14 3506.63 1911.76 3506.03 1919.45 3505.5C1922.09 3507.46 1924.76 3509.41 1927.36 3511.39C1915.75 3516.13 1904.48 3520.98 1893.76 3526C1897.11 3530.97 1903.4 3524.98 1908.25 3528.41C1911.77 3530.88 1913.32 3535 1915.31 3538.68C1906.01 3542.61 1897.25 3546.55 1888.92 3550.64C1894.36 3552.05 1899.77 3553.54 1905.19 3555.1C1891.54 3561.23 1881.82 3565.16 1863.12 3574.91C1862.54 3575.15 1861.12 3576.45 1860.53 3576.66C1810.17 3597.78 1750.75 3624.89 1696.32 3655.24C1695.18 3655.88 1694.04 3656.53 1692.89 3657.18C1692.05 3657.57 1690.02 3659.56 1689.15 3659.88C1604.03 3699.58 1520.51 3765.17 1448.66 3829.39C1387.25 3884.42 1329.87 3945.3 1278.36 4009.66C1280.02 4005.64 1281.66 4001.63 1283.29 3997.63C1281.18 3989.32 1274.84 3997.51 1274.03 3995.31C1273.96 3990.71 1273.88 3986.12 1273.81 3981.54C1269.38 3985.14 1264.92 3988.76 1260.44 3992.41C1260.15 3986 1259.85 3979.59 1259.54 3973.2C1255.11 3976.83 1250.65 3980.48 1246.17 3984.17C1234.44 3974.63 1249.79 3963.96 1249.7 3961.19C1249.56 3952.39 1241.21 3962.08 1239.45 3957.72C1241.52 3952.65 1243.53 3947.64 1245.61 3942.56C1242.12 3941.43 1238.69 3940.27 1235.23 3939.12C1235.2 3923.32 1223.05 3913.44 1219.02 3898.01C1248.54 3840.02 1284.99 3786.93 1331.09 3740.86Z" fill="white"/>
<path d="M588.804 3134.12C695.589 3099.81 807.634 3068.03 924.283 3036.89C1382.4 2915.45 1903.61 2810.81 2349.68 2752.31C2391.24 2746.86 2431.9 2741.85 2471.96 2737.2C2686.75 2710.4 3215.22 2665.48 3621.5 2662.92C3771.44 2664.17 3918.13 2658.12 4007.78 2727.25C4008.07 2727.41 4008.88 2727.96 4009.15 2728.13C4043.49 2756.34 4065.73 2783.97 4080.35 2804.76C4081.58 2806.53 4082.76 2808.26 4083.88 2809.95C4093.83 2824.83 4105.29 2839.02 4095.99 2836.93C4088.94 2828 4081.7 2819.16 4074.18 2810.53C4063.14 2797.84 4051.53 2785.6 4039.26 2773.95C4040.07 2781.53 4040.7 2789.07 4041.13 2796.56C4025.49 2781.27 4008.87 2766.97 3991.12 2754.28L3991.45 2754.49C3959.18 2732.4 3922.08 2721.41 3883.29 2716.19C3921.99 2724.62 3956.7 2738.31 3986.6 2762.59L3985.76 2762.05C3995.95 2770.71 4005.65 2779.95 4014.9 2789.6C4007.4 2785.92 3999.87 2782.5 3992.31 2779.38C4015.73 2796.44 4033.75 2815.65 4048.35 2834.71C4073.39 2867.77 4089.68 2901.02 4108.33 2934.02C4113.98 2956.33 4068.78 2885.29 4062.06 2878.16C4059.57 2875.35 4048.3 2868.59 4029.96 2851.93C4019.86 2842.87 4007.49 2830.81 3992.01 2815.58C4004.28 2827.78 4015.94 2840.92 4027 2854.7C4040.84 2871.96 4054.31 2890.88 4067.81 2910.52C4071 2919.26 4074.19 2928.08 4077.4 2936.98C4057.32 2910.57 4037.66 2885.18 4017.81 2863.3C3998.18 2841.7 3977.02 2822.12 3955.12 2806.48L3958.85 2808.89C3949.14 2802.86 3942.43 2798.85 3935.88 2795.68C3935.8 2799.05 3942.55 2803.12 3956.54 2812.74L3952.57 2810.19C3962.6 2818.09 3973.3 2827.87 3976.8 2834.28C3982.08 2843.95 3976.6 2845.02 3973.76 2848.07C3963.84 2838.96 3953.67 2830.59 3943.53 2823.29L3948.36 2826.4C3927.4 2813.3 3922.16 2810.83 3904.31 2805.74C3887.57 2801.27 3866.51 2798.27 3844.18 2796.32C3868.57 2802.11 3891.52 2809.38 3906.55 2817.85C3839.51 2799.38 3727.66 2801.9 3629.7 2804.25C3270.76 2815.37 2915.09 2833.29 2556.73 2872.51C2495.51 2879.26 2433.72 2886.75 2371.52 2895.01C1906.24 2957.37 1415.64 3059.09 960.388 3178.66C919.447 3189.52 878.844 3200.51 838.651 3211.7C675.523 3257.95 510.309 3305.04 362.917 3373.88C318.461 3395.09 274.491 3417.21 232.297 3440.63C211.414 3452.27 190.516 3464.46 171.968 3476.75C162.814 3482.82 153.755 3489.32 148.017 3494.37C146.601 3495.61 145.514 3496.67 144.931 3497.33C144.672 3497.63 144.568 3497.8 144.742 3497.67C144.941 3497.5 145.311 3497.19 146.327 3495.9C146.817 3495.26 147.401 3494.46 148.125 3493.33C148.967 3492 149.964 3490.27 151.027 3487.95C152.899 3483.25 157.043 3475.36 155.517 3458.31C154.534 3442.16 141.444 3423.86 133.877 3418.75C124.713 3411.74 120.967 3410.98 117.325 3409.56C309.655 3455.24 522.137 3490.61 723.608 3527.78C701.341 3525.04 678.996 3522.28 656.821 3519.56C634.281 3522.6 692.756 3532.96 687.83 3534.16C670.653 3534.1 653.613 3534.07 636.433 3534.02C669.255 3541.18 702.17 3548.37 734.95 3555.54C711.985 3555.8 689.118 3556.08 666.131 3556.34C698.905 3563.47 731.732 3570.63 764.513 3577.78C778.388 3595.96 673.16 3571.5 662.828 3571.5C630.189 3571.45 702.535 3584.96 693.554 3587.59C665.795 3584.22 637.761 3580.78 609.98 3577.4C620.465 3582.84 630.826 3588.25 641.365 3593.69C581.757 3593.25 596.813 3612.22 556.028 3618.18C398.346 3595.15 245.582 3576.33 75.7631 3538.63C68.334 3536.06 62.0126 3534.39 49.3096 3524.9C38.8081 3517.77 22.5524 3495.7 20.7152 3475.06C18.2547 3433.18 32.5394 3423.87 36.5363 3415.49C47.9276 3400.1 54.74 3394.91 61.8127 3388.46C75.2083 3376.89 86.8894 3368.6 98.5394 3360.53C121.628 3344.7 144.27 3330.97 166.863 3317.79C212.214 3291.48 257.887 3267.52 304.459 3244.45C397.539 3198.83 492.846 3165.25 588.804 3134.12Z" fill="white"/>
</svg>
