<svg width="5815" height="2382" viewBox="0 0 5815 2382" fill="none" xmlns="http://www.w3.org/2000/svg">
<path d="M4448.56 535.778C4449.86 536.203 4451.19 536.637 4452.5 537.066C4475.88 544.679 4506.57 555.58 4533.89 577.118C4566.4 601.86 4587.32 637.407 4608.51 661.383C4634.55 690.706 4658.95 719.454 4678.81 746.68C4690.26 762.682 4700.95 776.879 4709.95 788.742C4715.25 795.721 4720.71 802.808 4726.28 809.981C4742.77 830.935 4757.42 853.613 4775.4 871.036C4794.54 889.31 4813.2 907.052 4832.02 921.975C4859.08 940.967 4891.86 948.501 4912.54 960.316L4912.51 960.303C4921.37 964.472 4929.39 967.446 4936.06 969.638C4936.13 969.663 4936.21 969.688 4936.29 969.713C4948.43 973.631 4953.69 974.755 4953.67 974.808C4953.68 974.766 4946.78 973.159 4936.2 970.007C4929.33 967.953 4920.95 965.134 4912.04 961.385C4893.91 952.931 4871.54 946.005 4853.19 939.638C4860.54 942.472 4867.97 944.986 4875.36 947.603C4873.79 947.098 4872.19 946.588 4870.61 946.087C4853.73 940.351 4840.53 936.544 4827.61 928.116C4820.66 923.517 4813.49 918.503 4805.32 912.427C4791.59 902.204 4778.9 891.985 4766.16 881.881C4745.63 865.373 4729.59 844.961 4709.62 824.609C4705.08 819.95 4700.42 815.173 4695.6 810.239C4679.79 794.062 4665.94 779.712 4653.7 766.792C4638.12 750.657 4623.56 737.871 4610.71 727.011C4598.97 715.306 4587.36 704.002 4575.97 693.073C4546.21 663.319 4527.41 635.873 4502.87 619.404C4483.33 605.463 4460.98 597.509 4436.72 590.301C4416.59 584.273 4397.48 578.072 4378.92 572.213C4400.27 575.637 4414.42 577.304 4436.62 581.229C4437.49 581.383 4438.38 581.541 4439.27 581.701C4462.22 585.39 4492.94 594.506 4512.2 606.685C4522.15 612.576 4529.53 618.107 4533.19 620.145C4535.06 621.483 4548.57 636.329 4555.14 644.23C4542.58 631.293 4527.2 617.478 4511.18 608.073C4505.38 604.604 4499.54 601.669 4493.93 599.245C4479.94 592.729 4454.18 586.27 4438.5 584.295C4424.98 582.315 4419.85 582.701 4437.2 588.689C4442.3 590.453 4449.37 592.684 4458.32 595.834C4457.15 592.27 4482.12 594.397 4509.68 610.125C4518.56 615.244 4527.62 621.802 4536.36 629.427C4548.1 638.933 4569.15 664.093 4587.94 681.412C4597.26 689.932 4604.98 697.154 4608.88 700.63C4610.46 702.038 4611.31 702.298 4605.58 696.415C4601.26 692.122 4595.38 686.467 4588.95 680.43C4576.06 668.325 4562.93 653.124 4555.25 644.36C4565.77 655.039 4576.84 667.626 4589.8 679.603C4615.01 702.956 4642.12 729.266 4666.12 756.85C4680.61 773.795 4695.2 789.979 4708.88 804.893C4694.81 788.716 4680.93 772.405 4667.5 755.741C4664.72 752.293 4661.86 748.875 4658.98 745.501C4661.73 748.588 4664.71 751.964 4667.76 755.536C4684.57 775.317 4706.91 799.376 4721.35 814.304C4737.08 830.835 4743.25 836.551 4724.35 811.677C4720.53 806.761 4715.7 800.633 4709.78 793.119C4702.5 783.851 4690.3 768.518 4675.85 749.057C4656.77 723.723 4631.6 694.806 4604.55 665.236C4582.3 640.743 4560.94 605.79 4529.8 582.696C4501.83 561.138 4471.53 551.296 4450.3 544.499C4439.48 541.083 4430.19 538.079 4422.98 535.789C4399.28 528.28 4381.12 523.088 4354.82 515.733C4354.78 515.722 4354.74 515.712 4354.7 515.701C4325.58 507.494 4296.53 496.59 4272.01 487.558C4261.53 483.685 4251.79 480.304 4243.08 477.465C4227.01 472.141 4183.66 460.07 4140.13 450.141C4103 440.699 4062.71 436.512 4042.57 435.252C4034.39 434.656 4026.11 434.181 4017.77 433.806C3973.98 431.784 3926.44 428.19 3878.97 428.166C3836.73 430.578 3803.84 416.797 3752.28 428.826C3729.4 439.244 3705.62 449.294 3685.42 463.338C3682.68 465.236 3679.96 467.235 3677.28 469.343C3674.91 471.217 3672.56 473.13 3670.23 475.077C3643.58 496.316 3621.1 526.089 3592.03 541.611C3570.41 550.848 3552.16 564.195 3534.14 575.744C3532.42 576.856 3530.63 578.003 3528.76 579.176C3504.21 595.498 3462.52 598.51 3438.79 606.788C3438.63 606.836 3438.47 606.884 3438.31 606.932C3409.24 616.466 3404.05 620.98 3373.36 636.983C3372.42 637.492 3371.46 638.004 3370.47 638.523C3354.37 647.086 3329.65 656.821 3311.26 669.81C3295.3 680.758 3281.33 691.259 3273.72 698.032C3265.77 705.015 3257.73 712.898 3250.2 721.664C3230.2 745.057 3205.29 769.149 3186.27 791.518C3175.46 803.87 3164.19 813.527 3154.03 822.091C3140.87 833.068 3130.84 841.503 3122.59 849.475C3090.04 878.401 3066.29 888.79 3017.08 918.497C2998.15 928.82 2982.15 944.368 2945.5 966.923C2937.39 971.247 2928.18 976.982 2917.96 983.215C2896.8 996.235 2867.15 1012.94 2836.89 1028.92C2791.18 1053.18 2744.18 1078.1 2723.48 1088.59C2682.93 1109.2 2673.22 1112.93 2681.22 1106.74C2693.02 1097.92 2757.24 1057.41 2825.74 1010.75C2861.25 987.287 2895.8 960.729 2927.71 937.372C2939.65 929.092 2949.77 919.075 2959.64 910.119C2964.42 905.722 2978.79 892.678 2993.9 881.587C3012.85 867.446 3030.85 854.471 3023.05 858.727C3012.43 865.43 3002.22 872.085 2992.17 878.835C2965.83 895.917 2945.08 918.162 2924.5 932.044C2888.37 957.416 2856.92 981.134 2821.65 1004.08C2797.51 1020.05 2773.05 1036.27 2747.32 1052.85C2696.87 1085.34 2668.42 1102.64 2643.51 1116.29C2613.46 1132.34 2589.88 1146.03 2537.48 1169.83C2486.8 1192.37 2441.79 1206.03 2429.87 1210.11C2411.47 1215.48 2450.67 1206.03 2521.04 1172.91C2558.16 1155.79 2622.49 1119.88 2614.57 1125.6C2622.94 1120.72 2631.55 1115.64 2640.41 1110.43C2694.58 1077.9 2755.19 1035.49 2816.01 994.906C2852.05 971.259 2883.83 947.481 2919.39 923.555C2940.09 909.914 2963.67 886.815 2988.16 872.448C2992.52 869.758 2996.69 867.23 3000.93 864.709C3021.1 852.767 3031.58 847.967 3049.43 838.11C3064.17 829.936 3078.72 821.828 3090.8 812.133C3114.73 792.895 3139.54 778.427 3156.34 762.558C3182.6 738.142 3205.6 721.371 3219.75 710.738C3222.93 707.41 3226.08 704.058 3229.21 700.679C3249.15 679.192 3272.56 661.809 3295.54 645.584C3316.95 630.42 3340.86 621.039 3360.96 610.556C3383.5 598.858 3407.66 589.162 3432.61 582.403C3463.96 573.223 3497.51 570.122 3516.3 557.206C3532.05 547.457 3548.17 536.415 3567.38 526.711C3572.94 524.183 3578.64 521.838 3584.52 519.794C3605.27 510.427 3632.85 480.503 3659.01 460.069C3661.47 458.097 3663.96 456.138 3666.51 454.196C3683.7 441.183 3702.06 431.863 3720.37 423.593C3729.19 419.615 3737.64 416.009 3745.48 412.487C3785.57 399.649 3801.53 409.18 3821.93 408.913C3841.41 410.332 3860.22 411.089 3879.42 411.226C3924.95 411.515 3970.69 415.239 4018.78 418.385C4032.54 419.241 4046.69 420.412 4061.39 422.161C4088.12 425.165 4117.43 431.225 4143.16 438.367C4186.69 449.923 4230.83 462.855 4275.06 478.666C4302.72 488.59 4330.64 498.532 4357.3 506.337C4385.49 514.454 4412.2 523.632 4438.16 532.273C4411.97 523.128 4385.46 513.555 4357.65 505.029C4352.88 503.547 4348.02 501.962 4343.15 500.32C4348.04 501.887 4352.92 503.398 4357.71 504.805C4390.71 514.439 4422.06 525.608 4452.88 535.785C4462.48 538.936 4472.35 542.361 4482.35 546.447C4472.22 542.716 4462.25 539.671 4452.55 536.911C4451.23 536.538 4449.89 536.156 4448.56 535.778ZM4555.21 644.314C4555.21 644.313 4555.21 644.312 4555.21 644.312C4555.23 644.328 4555.24 644.344 4555.25 644.36C4555.24 644.343 4555.22 644.331 4555.21 644.314Z" fill="#4E6397"/>
<path d="M3155.94 1768.49C3152.79 1772.84 3149.4 1777.41 3145.79 1782.16C3127.59 1805.67 3106.01 1837.46 3082.35 1866.86C3059.97 1894.09 3043.85 1925.43 3034.25 1946.61C3023.67 1969.77 3014.24 1996.54 3008.33 2022.47C3004.65 2038.27 3005.99 2055.09 3010.81 2068.91C3010.83 2068.94 3010.86 2069.05 3010.88 2069.08C3012.53 2075.46 3014.13 2078.96 3019.3 2080.1C3033.05 2082.38 3045.82 2077.2 3053.84 2074.62C3061.4 2071.87 3064.44 2070.39 3064.46 2070.41C3064.32 2069.6 3042.84 2083.39 3018.81 2082.88C3015.74 2082.47 3012.57 2081.11 3010.56 2078.6C3008.54 2076.13 3007.57 2073.23 3006.47 2070.75L3006.5 2070.8C3006.36 2070.53 3006.22 2070.24 3006.08 2069.96C3006.21 2070.25 3006.34 2070.54 3006.46 2070.82L3006.44 2070.76C3007.95 2074.81 3009.81 2080.2 3014.69 2082.21C3013.64 2081.79 3012.63 2081.22 3011.72 2080.49C3008.4 2077.63 3007.33 2073.82 3006.01 2070.92L3006.05 2071C3000.92 2060.16 2997.81 2050.72 2996.45 2036.53C2996.02 2031.25 2996.02 2026.02 2996.44 2020.87C2998.61 1995.82 3002.63 1972.47 3009.26 1942.79C3016.68 1910.3 3024.07 1887.02 3030.41 1868.05C3034.96 1858.65 3039.91 1849.64 3045.24 1841.06C3064.83 1809.15 3081.59 1778.59 3100.64 1750.94C3110.4 1736.68 3119.59 1722.77 3128.57 1709.14C3123.96 1721.88 3121.64 1730.53 3116.3 1743.28C3114.52 1747.49 3112.3 1752.29 3109.84 1757.3C3100.15 1776.76 3088.95 1799.67 3087.69 1806.25C3087.01 1807.54 3079.77 1818.06 3076.39 1823.49C3083.21 1809.62 3091.15 1792.28 3097.61 1778.17C3100.31 1772.27 3104.32 1763.86 3108.01 1756.03C3116.28 1737.97 3121.17 1722.99 3101.73 1751.69C3101.57 1751.91 3101.41 1752.14 3101.25 1752.37C3106.06 1753.26 3093.85 1780.53 3081 1808.68C3076.7 1818 3066.74 1837.1 3059.02 1850.64C3055.45 1856.93 3052.79 1862.24 3051.54 1865.03C3051.01 1866.26 3051.1 1866.87 3053.75 1862.45C3055.45 1859.49 3057.64 1855.62 3060.15 1851.42C3065.88 1841.84 3072.27 1830.14 3076.33 1823.58C3071.96 1832.5 3066.87 1842.15 3061.14 1852.11C3043.74 1881.95 3029.65 1918.51 3021.23 1949.74C3026.11 1934.54 3031.74 1919.59 3038.26 1905.04C3024.51 1937.83 3008.04 2009.61 3030.79 1947.5C3036.89 1932.86 3052.55 1896.18 3077.85 1863.73C3101.14 1833.42 3122.78 1800.25 3139.58 1777.87C3147.67 1766.92 3154.06 1757.63 3158.32 1751.25C3167.08 1738.12 3172.88 1727.76 3181.81 1713.67C3185.33 1708.1 3188.87 1702.61 3192.35 1697.28C3203.74 1679.99 3214.85 1663.06 3222.05 1649.14C3225.92 1641.26 3235.21 1623.34 3240.21 1597.85C3245.26 1566.21 3246.07 1535.81 3250.71 1526.05C3251.18 1524.74 3251.69 1523.5 3252.22 1522.36C3261.84 1502.4 3280.29 1479.02 3292.69 1451.79C3308.17 1417.85 3321.89 1382.57 3325.51 1346.47C3326.31 1336.61 3327.27 1326.79 3328.04 1317.39C3328.35 1313.64 3328.64 1309.81 3328.89 1305.93C3329.88 1290.79 3330.48 1274.78 3329.94 1258.68C3329.24 1238.09 3327.17 1217.84 3331.42 1199.05C3332.52 1194.05 3334.37 1188.3 3337.05 1182.5C3343.45 1168.25 3352.87 1152.93 3360.86 1142.97C3370.5 1131.1 3374.81 1125.8 3385.13 1118.32C3388.66 1115.8 3392.89 1112.97 3398.49 1109.5C3415.2 1099.29 3448.35 1080.72 3459.66 1071.82C3465.74 1067.2 3472.22 1061.88 3477.8 1056.27C3494.3 1039.94 3512 1015.32 3535.12 997.76C3535.4 997.53 3535.69 997.298 3535.97 997.065C3557.06 978.553 3564.56 966.46 3583.12 943.791C3596.2 926.687 3616.2 906.07 3642.01 871.209C3648.98 861.555 3657.78 848.862 3665.15 834.828C3680.14 806.197 3690.99 769.159 3695 754.321C3702.14 727.639 3703.25 721.363 3704.28 727.596C3705.4 737.094 3702.31 789.831 3686.61 843.189C3676.55 875.588 3658.9 906.45 3645.55 929.624C3641.82 936.263 3623.96 965.646 3620.75 972.908C3619.9 974.744 3619.91 975.25 3621.2 973.76C3621.27 973.651 3621.35 973.541 3621.43 973.432C3651.81 930.639 3678.6 891.507 3693.77 845.98C3700.55 825.028 3704.96 803.682 3708.69 781.16C3717.4 719.507 3717.34 702.807 3713.89 669.952C3712.13 659.363 3709.71 646.947 3703.85 631.484C3691.35 598.36 3669.92 576.992 3664.53 571.532C3655.05 564.194 3677.42 576.997 3703.26 620.455C3710.59 633.46 3717.46 654.314 3719.85 669.012C3721.9 681.029 3721.52 688.709 3721.02 685.95C3725.45 734.209 3721.18 792.49 3703.84 849.905C3687.41 898.859 3657.86 937.917 3634.47 966.958C3631.23 970.939 3628.5 974.099 3625.98 976.955C3621.13 982.493 3616.82 986.954 3610.82 993.323C3596.47 1008.46 3579.47 1023.85 3560.27 1035.41C3536.3 1049.56 3514.73 1069.54 3500.05 1076.35C3498.76 1077.53 3497.44 1078.7 3496.1 1079.87C3464.68 1105.82 3430.87 1124.1 3397.82 1143.69C3380.58 1154.04 3368.86 1172.68 3359.38 1194.26C3354.59 1205.5 3353.18 1217.67 3352.89 1232.69C3352.04 1241.72 3351.71 1251 3351.26 1260.22C3350.33 1278.1 3348.85 1293.55 3347.41 1308.8C3346.14 1322.05 3344.69 1335.2 3343.36 1348.37C3343.34 1348.59 3343.32 1348.82 3343.3 1349.04C3337.23 1394.06 3323.04 1426.01 3307.66 1459.42C3295.18 1486.17 3275.97 1510.16 3265.63 1529.5C3264.71 1531.25 3263.59 1534.05 3262.55 1537.65C3258.27 1552.02 3256.85 1574.58 3251.23 1600.21C3240.32 1643.3 3219.35 1672.95 3200.76 1702.38C3187.68 1722.54 3174.26 1743.07 3160.15 1762.74C3172.99 1745.65 3185.15 1728.27 3196.99 1711.2C3181.27 1735.04 3164.83 1759.42 3146.84 1782.89C3146 1783.98 3145.17 1785.06 3144.34 1786.15C3145.1 1785 3145.85 1783.88 3146.62 1782.74C3149.79 1778.01 3152.89 1773.27 3155.94 1768.49ZM3076.35 1823.55C3076.35 1823.55 3076.35 1823.55 3076.35 1823.55C3076.35 1823.56 3076.34 1823.57 3076.33 1823.58C3076.34 1823.57 3076.34 1823.56 3076.35 1823.55Z" fill="#4E6397"/>
<path d="M5586.25 174.757C5590.99 183.738 5595.71 193.523 5600.47 201.33C5616.88 227.748 5635.18 253.574 5656.43 274.198C5666.45 284.505 5678.88 292.804 5688.31 298.942C5706.62 311.084 5729.06 321.332 5749.71 335.428C5749.82 335.478 5750.11 335.695 5750.21 335.754C5766.58 350.34 5782.27 363.451 5795.14 372.046C5795.16 372.052 5795.19 372.077 5795.21 372.083C5801.65 376.626 5805.95 381.783 5809.03 385.635C5812.98 390.684 5814.47 392.896 5814.5 392.894C5814.33 393.161 5807.4 381.257 5794.27 373.589C5787.04 369.751 5779.49 365.268 5772.97 361.5C5776.23 363.611 5779.51 365.694 5782.82 367.716C5782.09 367.321 5781.37 366.939 5780.64 366.544C5768.75 359.537 5761.28 355.413 5749.33 348.14C5747.44 346.984 5745.61 345.859 5743.77 344.719L5744.07 344.915C5725.15 336.22 5705.72 331.257 5680.76 322.923C5661.44 316.562 5645.94 310.541 5632.77 303.464C5629.05 301.551 5625.55 299.752 5622.22 298.045C5594.86 278.416 5573.68 254.008 5557.63 233.094C5542.34 212.622 5534.29 194.099 5525.68 182.992C5532.72 187.144 5538.56 191.554 5546.23 199.361C5552.55 205.804 5560.62 216.09 5569.18 224.527C5576.63 231.66 5583.25 237.696 5586.36 239.139C5587.16 239.984 5593.21 248.304 5596.71 252.153C5587.5 244.14 5576.67 233.795 5567.75 225.589C5567.46 225.31 5567.16 225.031 5566.88 224.753C5552.99 210.682 5525.98 178.929 5546.59 214.368C5548.53 212.051 5555.1 217.9 5565.46 227.289C5571.5 232.369 5578.49 238.84 5585.79 245.402C5594.58 253.854 5618.59 274.67 5625.36 278.554C5626.26 279.119 5626.83 279.085 5623.75 276.375C5616.75 270.718 5602.66 258.985 5596.77 252.218C5610.03 263.946 5626.6 277.371 5644.17 289.361C5658.39 299.072 5674.26 305.924 5688.53 311.614C5677.04 306.319 5665.75 300.615 5655.31 293.777C5679.26 307.651 5734.96 327.314 5688.42 302.299C5681.39 298.029 5666.7 289.85 5653.65 277.641C5631.93 258.129 5611.24 231.01 5594.75 205.573C5586.08 192.015 5578.66 176.247 5573.09 167.497C5565.26 156.147 5560.9 145.872 5539.59 134.1C5536.43 132.616 5532.87 131.381 5529.15 130.615C5508.72 125.616 5480.86 122.99 5460.89 133.73C5456.24 136.044 5448.38 141.035 5441.34 149.022C5423.9 168.463 5400.18 202.917 5390.17 213.593C5388.06 215.968 5385.9 218.296 5383.67 220.566C5357.88 244.86 5327.59 278.061 5309.38 312.062C5300.44 328.144 5292.07 343.66 5284.7 358.087C5283.34 360.74 5281.98 363.46 5280.62 366.225C5270.95 385.95 5261.24 407.961 5252.29 428.504C5250.05 433.642 5247.56 438.649 5245.01 443.395C5238.38 455.855 5225.42 473.845 5218.36 485.562C5210.57 498.5 5210.46 502.872 5201.94 516.638C5201.32 517.625 5200.66 518.646 5199.94 519.722C5191.34 533.768 5167.24 556.147 5157.81 564.149C5146.03 575.05 5131.42 587.78 5116.64 599.52C5106.84 607.167 5096.34 613.932 5085.87 619.2C5058.8 630.898 5046.02 640.834 5006.24 632.017C4993.72 627.977 4984.22 621.85 4975.17 616.588C4970.74 613.974 4966.44 611.642 4963.53 610.382C4962.08 609.738 4961.1 609.36 4960.53 609.038C4959.94 608.737 4959.64 608.359 4958.59 608.391C4960.3 607.37 4961.56 606.028 4961.85 605.491C4962.32 603.73 4959.69 608.882 4950.17 616.559C4918.89 637.56 4873.16 648.165 4857.92 654.023C4857.61 654.119 4857.31 654.219 4857.01 654.32C4838.08 661.752 4832.93 665.109 4836.12 660.785C4838.05 658.405 4844.45 652.604 4854.02 646.477C4873.51 634.361 4908.27 618.601 4932.29 594.609C4935.85 591.262 4936.8 584.656 4944.02 579.882C4955.82 571.954 4971.12 573.266 4981.43 575.875C4985.52 576.651 4997.75 580.874 5006.88 583.711C5016.25 586.646 5021.92 586.382 5019.42 585.317C5000.81 580.81 4972.05 556.925 4940.97 573.931C4935.7 576.89 4932.84 581.204 4931.15 583.83C4929.43 586.592 4928.46 588.195 4927.74 589.032C4910.84 605.204 4889.36 617.318 4865.88 629.724C4860 632.852 4854.67 635.708 4849.87 638.462C4809.45 666.24 4806.13 670.966 4770.1 701.458C4749.49 719.663 4732.97 735.915 4728.57 740.374C4722.04 747.158 4735.59 732.999 4761.63 704.042C4775.36 688.745 4803.26 664.661 4800.35 668.755C4813.35 656.654 4826.62 643.15 4845.76 630.493C4873 613.835 4901.51 599.297 4921.01 580.765C4920.25 581.216 4920.79 580.539 4922.75 577.513C4924.64 574.733 4928.72 568.803 4936.29 564.77C4952.84 555.132 4973.59 557.927 4985.43 562.476C4997.98 566.996 5006.84 572.418 5014.02 576.12C5017.93 578.191 5020.46 579.518 5022.41 580.468C5024.36 581.48 5026.74 582.4 5030.56 582.824C5049.53 584.929 5077.6 574.942 5096.71 566.237C5107.13 561.495 5115.98 557.769 5122.36 555.9C5144.94 538.814 5164.66 520.469 5179.38 498.245C5198.1 470.789 5217.92 442.685 5231.16 415.944C5232.47 413.295 5233.79 410.658 5235.12 408.026C5247.21 388.469 5256.11 372.354 5264.83 356.145C5269.78 346.963 5274.68 337.82 5280.15 328.162C5285.12 319.387 5289.96 310.897 5294.7 302.625C5314.77 267.04 5343.42 235.473 5373.21 209.255C5376.82 205.851 5380.5 202.105 5384.35 197.928C5398.66 182.354 5415.23 161.495 5434.05 142.258C5463.21 110.399 5508.6 115.078 5530.98 120.983C5570.82 133.743 5574.16 156.184 5583.57 169.602C5574.38 155.735 5571.67 132.967 5531.27 119.451C5530.45 119.231 5529.59 119.009 5528.74 118.791C5529.6 118.987 5530.45 119.186 5531.28 119.384C5561.63 127.558 5569.7 145.463 5577.56 156.429C5584.89 168.341 5589.83 179.014 5594.74 188.402C5592.05 184.162 5589.27 179.576 5586.25 174.757ZM5596.74 252.197C5596.74 252.196 5596.74 252.195 5596.74 252.194C5596.75 252.202 5596.76 252.21 5596.77 252.218C5596.76 252.211 5596.75 252.205 5596.74 252.197Z" fill="#4E6397"/>
<path d="M1642.4 1538.42C1644.15 1560.12 1643.51 1586.05 1641.77 1612.38C1639.74 1641.64 1638.09 1671.53 1641.75 1691.75C1643.61 1700.93 1645.07 1709.17 1646.24 1716.13C1648.75 1731.14 1651.26 1746.99 1654.02 1762.6C1658.11 1786.23 1667.84 1809.56 1675.3 1828.31C1677.75 1834.37 1680.04 1839.97 1682.13 1844.96C1684.49 1851.08 1687.64 1855.66 1690.53 1859.02C1694.82 1863.96 1696.98 1865.7 1696.96 1865.74C1697.25 1865.53 1687.08 1858.54 1680.78 1845.63C1678.08 1840.5 1675.13 1835.04 1672.23 1829.84C1670.53 1826.79 1668.83 1823.82 1667.22 1821.05C1668.77 1824.05 1670.33 1827.03 1671.88 1830.02C1672.16 1830.56 1672.45 1831.1 1672.73 1831.65C1672.42 1831.12 1672.1 1830.59 1671.79 1830.06C1671.67 1829.87 1671.55 1829.67 1671.43 1829.47C1664.58 1817.08 1659.78 1809.79 1652.91 1797.06C1647.61 1787.1 1642.99 1777.44 1639.11 1767C1634.38 1754.38 1629.59 1741.34 1623.31 1726.48C1619.25 1716.91 1615.41 1708.54 1611.7 1701.18C1605.47 1687.92 1601.87 1676.83 1598.5 1667.3C1594.96 1647.78 1593.48 1629.82 1592.43 1612.93C1590.1 1577.18 1588.74 1545.72 1583.08 1520.44C1588.19 1528.99 1591.96 1534.82 1595.9 1545.06C1602.27 1561.09 1606.9 1592.31 1610.15 1598.6C1610.29 1599.62 1610.15 1607.21 1610.2 1612.73C1610.21 1613.71 1610.23 1614.63 1610.26 1615.42C1610.12 1614.54 1609.98 1613.64 1609.83 1612.73C1607.89 1600.72 1605.19 1586.76 1602.43 1575.58C1598.83 1557.87 1585.47 1519.21 1589.9 1558.3C1594.32 1556.22 1601.39 1578.34 1605.92 1603.28C1606.39 1605.74 1606.91 1608.97 1607.46 1612.76C1609.49 1627.37 1612.51 1648.78 1614.12 1654.95C1614.39 1656.01 1614.83 1656.36 1614.43 1652.19C1613.25 1643.02 1610.61 1624.57 1610.27 1615.5C1614.28 1638.84 1616.82 1669.99 1626.64 1696.5C1630.4 1706.3 1633.82 1715.95 1636.96 1724.97C1634.15 1715.29 1631.27 1705.63 1628.19 1696.01C1627.29 1693.19 1626.5 1690.32 1625.8 1687.42C1626.56 1690.05 1627.5 1692.93 1628.64 1695.87C1640.05 1724.49 1653.41 1767.72 1643.83 1718.55C1642.73 1713.01 1640.86 1704.05 1638.21 1692.87C1633.67 1673.5 1634.16 1642.41 1635.5 1612.45C1637.15 1577.16 1635.96 1542.71 1632.99 1525.87C1631.33 1515.29 1628.87 1506.53 1625.84 1496.87C1624.85 1493.74 1623.79 1490.65 1622.69 1487.49C1614.2 1464.93 1611.02 1448.26 1610.49 1435.36C1609.86 1428.55 1608.92 1409.7 1612.97 1389.74C1616.6 1370.89 1619.95 1353.36 1622.44 1344.32C1626.59 1328.68 1632.1 1312.83 1640.43 1300.57C1657.48 1275.75 1669.83 1251.18 1686.44 1234.45C1698.29 1222.8 1707.4 1210.23 1714.93 1198.58C1716.63 1195.95 1718.3 1193.26 1719.95 1190.54C1723.64 1184.46 1727.23 1178.2 1730.95 1172.03C1742.69 1152.55 1751.52 1131.83 1762.93 1114.48C1766.15 1109.56 1770.53 1103.72 1775.67 1098.13C1782.66 1090.32 1788.76 1080.68 1793.46 1073.64C1803.5 1060.07 1801.44 1053.73 1823.4 1041.61C1828.93 1039.11 1837.13 1037.25 1845.71 1037.88C1868.04 1041.05 1879.03 1052.22 1886.72 1053.43C1887.43 1053.67 1888.11 1053.87 1888.73 1054.06C1911.8 1061.16 1944.06 1063.46 1973.61 1070.79C1977.43 1071.78 1981.06 1072.78 1984.53 1073.83C2006.22 1079.77 2018.77 1079.96 2052.6 1093.91C2070.62 1101.85 2085.93 1111.68 2109.79 1125.53C2136.37 1141.72 2188.36 1171.87 2205.74 1180.49C2226.01 1191.19 2230.6 1193.87 2225.32 1193.64C2212.29 1193.24 2114.29 1159.59 2059.69 1141.35C2056.41 1140.37 2045.5 1136.68 2037.07 1135.13C2026.5 1133.05 2017.09 1132 2020.87 1133.54C2026.06 1135 2031.09 1136.45 2036.01 1137.96C2085.34 1156.44 2130.47 1174.17 2180.94 1190.62C2220.59 1203.6 2236.33 1207.92 2254.87 1213.61C2266.19 1216.94 2278.43 1221.09 2298.46 1225.69C2326.24 1232.12 2350.37 1231.91 2356.74 1231.73C2366.35 1230.79 2346.47 1234.27 2305.9 1231.02C2287.19 1229.36 2257.07 1221.21 2253.13 1219.21C2252.52 1218.92 2252.49 1218.79 2253.15 1218.85C2186.54 1205.63 2089.05 1172.53 2033.41 1144.86C2031.86 1144.24 2030.33 1143.63 2028.81 1143.02C2018.42 1138.92 2013.49 1136.27 2003.8 1132.56C1992.26 1128.16 1979.38 1123.38 1966.84 1117.47C1942.56 1106.23 1914.12 1096.77 1902.22 1088C1893.19 1085.58 1884.15 1082.84 1875.17 1079.64C1860.88 1074.43 1847.87 1065.82 1842.4 1066.94C1825.22 1066.51 1815.58 1088.57 1793.08 1116.28C1784.89 1125.85 1777.31 1138.03 1769.62 1150.9C1761.43 1162.27 1754.5 1173.34 1746.53 1184.45C1742.62 1190 1738.83 1195.86 1734.83 1201.93C1728.82 1211.03 1722.36 1220.65 1714.02 1230.61C1709.02 1236.58 1703.68 1242.34 1697.98 1247.73C1683.19 1262.56 1672.03 1284.64 1653.56 1310.62C1646.59 1320.46 1640.24 1336.34 1634.55 1356.11C1631.28 1367.34 1628.25 1379.56 1624.81 1392.7C1615.73 1427.48 1618.51 1448.27 1634.84 1494.03C1638.29 1506.42 1640.72 1519.85 1641.9 1532.18C1641.02 1519.66 1638.91 1506.15 1635.84 1493.71C1634.1 1486.76 1632.23 1480.84 1630.63 1475.45C1632.38 1480.78 1634.39 1486.64 1636.29 1493.57C1642.12 1514.56 1644.22 1536.82 1644.58 1556.6C1644.02 1550.6 1643.32 1544.58 1642.4 1538.42ZM1610.26 1615.47C1610.26 1615.47 1610.26 1615.47 1610.27 1615.47C1610.27 1615.48 1610.27 1615.49 1610.27 1615.5C1610.27 1615.49 1610.26 1615.48 1610.26 1615.47Z" fill="#4E6397"/>
<path d="M1359.12 2152.15C1352.84 2158.23 1344.4 2165.73 1335.37 2172.92C1335.22 2173.18 1334.52 2173.77 1334.36 2174.02C1319.88 2184.47 1303.77 2193.18 1293.59 2197.59C1282.41 2202.48 1269.89 2207.45 1258.79 2211.39C1247.24 2215.64 1236.83 2218.14 1231.26 2218.5C1228.54 2218.77 1227.42 2218.89 1227.42 2218.9C1227.42 2218.9 1227.42 2218.9 1227.42 2218.9C1227.41 2219.2 1240.7 2216.35 1247.56 2210.18C1246.18 2211.01 1244.77 2211.82 1243.35 2212.6C1243.64 2212.39 1243.91 2212.18 1244.19 2211.97C1248.28 2209.3 1250.72 2206.96 1254.01 2203.92C1254.58 2203.38 1255.21 2202.8 1255.84 2202.21C1263.3 2195.16 1269.76 2189.11 1276.68 2179.23C1282.92 2170.12 1286.07 2162.45 1287.86 2155.73C1291.85 2150.14 1295.59 2144.92 1299.21 2140.01L1298.28 2141.03C1306.67 2128.25 1314.94 2117.72 1323.49 2108.51C1322.97 2113.73 1323.28 2117.64 1322.43 2122.82C1321.13 2131.01 1315.69 2143.15 1316.4 2147.2C1316.18 2147.65 1313.1 2150.63 1311.81 2152.34C1313.74 2147.23 1315.88 2140.78 1317.29 2135.42C1319.5 2127.89 1324.16 2109.18 1313.35 2122.34C1317.28 2124.71 1315.33 2135.32 1311.88 2145.84C1311.45 2147.17 1310.73 2148.99 1309.87 2150.99L1310.19 2150.64C1307.54 2156.07 1303.39 2162.71 1302.33 2165.02C1302.14 2165.45 1302.32 2165.87 1303.48 2164.62C1305.83 2161.75 1309.56 2155.19 1311.89 2152.28L1311.66 2152.53C1311.71 2152.48 1311.75 2152.42 1311.79 2152.37C1311.76 2152.44 1311.74 2152.5 1311.71 2152.57L1311.94 2152.33C1306.38 2164.96 1294.8 2179.74 1284.47 2190.33C1288.72 2186.91 1292.84 2183.35 1296.84 2179.65C1289.54 2189.4 1269.92 2206.57 1291.15 2195.72C1297.54 2192.47 1314.86 2181.97 1329.91 2169.72C1330.04 2169.53 1330.56 2169.08 1330.68 2168.89C1342.02 2158.73 1352.25 2148.32 1356.63 2143.38C1360.17 2139.41 1362.26 2135.98 1366 2131.69C1372.24 2124.51 1379.24 2118.13 1383.4 2113.04C1387.76 2108.07 1400.42 2083.99 1404.65 2075.71C1416.48 2054.15 1429.8 2027.94 1436.25 2005.97C1436.61 2004.73 1436.97 2003.43 1437.31 2002.12C1438.08 1999.1 1438.78 1995.9 1439.39 1992.69C1441.14 1983.51 1442.47 1973.83 1444.33 1965.44C1445.66 1959.52 1449.17 1950.8 1450.01 1944.94C1451.04 1937.97 1448.93 1935.62 1450.42 1927.49C1451.62 1920.89 1456.13 1908.88 1456.89 1903.76C1458.4 1893.2 1458.92 1878.28 1460.98 1866.99C1464.34 1848.54 1461 1845.64 1483.94 1813C1491.59 1802.34 1508.19 1782.22 1513.3 1775.7C1519.59 1768.01 1521.47 1766.5 1522.1 1768.94C1522.96 1774.81 1512.19 1816.13 1511.09 1841.09C1510.8 1844.35 1509.86 1862.21 1511.65 1859.43C1518.52 1833.96 1521.29 1813.22 1527.42 1789.75C1534.2 1762.94 1535.38 1762.61 1542.23 1741.58C1545.7 1730.51 1547.82 1720.9 1548.3 1718.23C1548.94 1714.25 1547.55 1722.52 1546.72 1739.57C1546.21 1748.53 1541.89 1763.48 1541.38 1761.11C1536.98 1790.07 1531.73 1832.73 1519.25 1857.61C1517.04 1862.02 1515.21 1863.74 1513.04 1867.55C1504.58 1882.41 1494.19 1900.17 1485.58 1905.37C1478.78 1932.65 1472.03 1959.97 1463.71 1987.32C1460.92 1992.52 1458.78 1997.44 1457 2002.12C1455.83 2005.17 1454.76 2008.2 1453.7 2011.2C1452.15 2015.58 1450.61 2019.93 1448.7 2024.45C1438.86 2047.45 1430.03 2065.29 1415 2087.15C1399.92 2108.98 1380.7 2131.46 1360.89 2150.51C1366.44 2145.82 1371.92 2141.04 1377.33 2136.17C1370.07 2143.63 1362.57 2150.88 1354.86 2157.9C1356.31 2156 1357.72 2154.08 1359.12 2152.15ZM1311.79 2152.35C1311.79 2152.35 1311.8 2152.35 1311.8 2152.36C1311.79 2152.36 1311.79 2152.36 1311.79 2152.37C1311.79 2152.36 1311.79 2152.36 1311.79 2152.35Z" fill="#4E6397"/>
<path d="M1726.74 2201.04C1716.14 2208.65 1701.27 2218.22 1685.36 2226.24L1687.1 2224.86C1672 2234.2 1656.72 2242.07 1646.65 2246.61C1631 2253.72 1613.24 2261.18 1599.58 2268.18L1599.7 2268.08C1590.49 2273.23 1583.31 2278.75 1579.12 2282.13C1576.58 2284.19 1575.57 2285.12 1575.57 2285.11C1575.57 2285.11 1575.57 2285.11 1575.57 2285.11C1575.57 2285.11 1575.57 2285.11 1575.57 2285.11C1575.7 2285.23 1586.87 2273.9 1594.26 2265.74C1592.78 2267.07 1591.33 2268.43 1589.9 2269.81C1590.17 2269.48 1590.45 2269.15 1590.72 2268.83C1592.62 2266.8 1594.23 2265.06 1595.78 2263.36C1595.79 2263.36 1595.83 2263.32 1595.84 2263.31C1598.32 2260.8 1600.62 2258.35 1603.74 2255.3C1612.7 2246.44 1620.76 2239.3 1630.02 2227.97C1638.41 2217.56 1643.27 2208.98 1646.49 2201.46C1649.96 2197.44 1653.32 2193.59 1656.58 2189.89C1656.94 2189.67 1657.83 2188.78 1658.21 2188.6C1673.32 2174.04 1687.06 2161.27 1700.6 2150.49C1698.61 2156.15 1697.85 2160.44 1695.46 2166C1691.77 2174.81 1682.25 2187.36 1681.71 2191.77C1681.33 2192.24 1677.07 2195.07 1675.11 2196.73C1678.88 2191.51 1683.13 2184.83 1686.26 2179.17C1690.93 2171.26 1701.17 2151.36 1685.82 2164.66C1689.38 2167.57 1684.26 2178.94 1677.26 2189.78C1675.42 2192.67 1671.49 2197.64 1667.79 2201.89C1667.69 2201.94 1667.45 2202.17 1667.36 2202.23C1664.64 2206.01 1662.1 2209.36 1661.15 2210.93C1660.87 2211.41 1660.99 2211.87 1662.5 2210.45C1664.07 2208.79 1666.23 2206.12 1668.39 2203.42C1668.46 2203.38 1668.64 2203.2 1668.71 2203.16C1671.07 2200.71 1673.4 2198.18 1675.07 2196.76C1673.39 2199.11 1671.42 2201.58 1669.32 2204.01C1669.27 2204.03 1669.13 2204.17 1669.08 2204.2C1660.35 2216.39 1648 2229.36 1637.35 2239.4C1642.55 2235.41 1647.67 2231.32 1652.68 2227.12C1642.97 2238.03 1619.29 2257.81 1644.17 2244.75C1650.65 2241.36 1667.06 2231.86 1683.35 2220.56L1682.03 2221.61C1701.38 2210.65 1719.37 2197.16 1726.63 2191.2C1731.63 2187.1 1734.9 2183.45 1740.15 2178.95C1748.94 2171.42 1758.23 2164.73 1764.09 2159.24C1767.55 2156.03 1776.17 2145.73 1783.65 2135.52C1788.96 2128.36 1793.62 2121.32 1796.3 2117.46C1810.51 2097.38 1824.24 2073.27 1835.26 2053.27C1838.32 2047.97 1840.83 2042.76 1842.91 2037.8C1843.53 2036.32 1844.12 2034.81 1844.69 2033.27C1849.75 2019.5 1852.95 2003.75 1857.6 1990.63C1860 1983.74 1865.39 1973.81 1867.75 1967.01C1868.86 1963.76 1869.28 1961.36 1869.64 1959.01C1870.11 1955.66 1870.39 1952.48 1872.41 1947.04C1875.2 1939.61 1882.41 1926.07 1884.31 1920.15C1888.06 1908.26 1891.93 1891.16 1897.39 1877.82C1897.5 1877.55 1897.61 1877.28 1897.71 1877.01C1906.53 1855.83 1903.96 1851.51 1938.1 1816.99C1949.44 1805.72 1973.17 1785.45 1980.65 1778.91C1989.68 1771.28 1992.17 1769.86 1991.94 1772.76C1990.72 1779.51 1965.56 1824.72 1956.95 1852.9C1955.64 1856.55 1949.43 1876.66 1952.1 1873.73C1966.48 1845.87 1976.07 1822.75 1990.17 1797.27C2006.23 1768.06 2007.53 1768 2021.97 1745.5C2029.45 1733.65 2035.12 1723.2 2036.55 1720.32C2038.65 1715.97 2034.2 1725.01 2027.22 1744.07C2023.47 1754.09 2013.87 1770.13 2014.19 1767.37C1999.48 1799.25 1980.2 1846.36 1960.37 1872.69C1956.87 1877.33 1954.48 1879.08 1951.2 1883.09C1946.11 1889.29 1940.68 1896.05 1935.39 1902.25C1927.43 1911.54 1919.74 1919.99 1913.7 1923.34C1906.79 1939.99 1899.91 1957.07 1891.85 1974.03C1885.61 1987.58 1880.06 2001.31 1874.45 2015.47C1868.53 2025.15 1864.76 2034.04 1860.53 2043.28C1858.11 2048.53 1855.54 2053.91 1852.15 2059.59C1851.23 2061.12 1850.3 2062.64 1849.34 2064.14C1836.58 2085.4 1825.36 2106.31 1804.98 2130.48C1801.17 2134.99 1797.15 2139.5 1792.95 2143.95C1773.69 2164.31 1751.62 2183.22 1729.16 2199.37C1736.62 2194.6 1743.96 2189.68 1751.21 2184.62C1741.22 2192.45 1730.96 2199.93 1720.33 2207.04C1722.5 2205.07 1724.63 2203.07 1726.74 2201.04ZM1675.08 2196.74C1675.08 2196.74 1675.08 2196.74 1675.09 2196.75C1675.08 2196.75 1675.08 2196.75 1675.07 2196.76C1675.08 2196.75 1675.08 2196.75 1675.08 2196.74Z" fill="#4E6397"/>
<path d="M2102.89 2159.27C2084.71 2168.6 2057.4 2182.32 2033.08 2193.09C2019.21 2199.38 2007.08 2202.95 1998.17 2205.45C1977.06 2211.23 1953.52 2216.92 1935.32 2223.59L1935.38 2223.55C1928.77 2226.11 1922.6 2228.26 1917.29 2229.61C1912.93 2230.73 1909.22 2231.38 1906.34 2231.9C1902.31 2232.61 1900.63 2232.94 1900.63 2232.94C1900.63 2232.94 1900.63 2232.94 1900.63 2232.94C1900.63 2232.94 1900.63 2232.94 1900.63 2232.94C1900.61 2232.89 1908.29 2231.6 1916.72 2228.12C1921.84 2225.99 1927.07 2222.91 1931.3 2220C1929.17 2221.22 1927.02 2222.42 1924.85 2223.56C1925.29 2223.28 1925.73 2222.99 1926.16 2222.7C1928.59 2221.25 1930.65 2219.88 1932.58 2218.52C1932.58 2218.52 1932.6 2218.51 1932.61 2218.51C1936.75 2215.71 1940.41 2213.12 1945.53 2209.85C1958.77 2201.32 1970.69 2194.81 1985.24 2184.04C1998.08 2174.43 2006.21 2166.03 2011.14 2158.62C2011.31 2158.38 2011.48 2158.15 2011.64 2157.91C2039.5 2134.38 2064.26 2116.38 2089.12 2103.06C2084.58 2109.12 2082.17 2113.76 2077.54 2119.72C2070.25 2129.13 2055.79 2142.8 2054.17 2147.64C2053.63 2148.14 2047.96 2151.32 2045.31 2153.22C2050.83 2147.4 2057.51 2140.04 2062.75 2133.88C2070.24 2125.29 2089.25 2103.83 2066.55 2117.98C2069.84 2121.27 2060.2 2133.54 2049.41 2145.58C2044.26 2151.42 2029.48 2164.82 2026.09 2168.47C2025.62 2168.98 2025.66 2169.47 2027.76 2167.99C2032.3 2164.51 2040.72 2156.53 2045.27 2153.25C2038.69 2160.18 2030.45 2167.78 2021.67 2175.16C2011.63 2183.57 2000.02 2190.81 1989.85 2196.84C1997.22 2193.27 2004.54 2189.55 2011.71 2185.46C1996.88 2196.35 1962.7 2213.89 1995.92 2203.23C2002.09 2201.13 2015.02 2196.88 2030.54 2189.09C2058.53 2174.99 2093.13 2155.82 2105.41 2148.95C2112.08 2145.16 2116.75 2141.76 2123.91 2137.95C2131.04 2134.17 2138.32 2131 2144.56 2128.56C2150.82 2125.87 2155.87 2122.93 2159.78 2120.29C2169.82 2114.13 2190.97 2089.86 2200.68 2084.33C2202.45 2083.25 2204.04 2082.29 2205.36 2081.51C2232.5 2066.63 2264.69 2042.76 2284.34 2018.4C2287.98 2014.07 2291.44 2009.81 2294.68 2005.68C2295.87 2004.17 2297.05 2002.61 2298.24 2001.02C2308.86 1986.81 2319.44 1969.88 2329.6 1955.98C2334.94 1948.68 2344.4 1938.28 2349.14 1930.87C2349.24 1930.72 2349.33 1930.58 2349.42 1930.43C2354.8 1921.99 2354.15 1918.58 2361.22 1908.62C2367.08 1900.37 2380.22 1886.14 2384.26 1879.85C2390.63 1870.04 2397.78 1856.4 2400.14 1846.55C2402.08 1841.47 2404.3 1836.79 2406.44 1832.72C2421.14 1805.6 2419.31 1803.75 2459.94 1761.29C2468.97 1751.79 2484.53 1736.68 2496.05 1724.76C2501.58 1719.07 2506.22 1714.34 2509.03 1711.55C2519.39 1701.3 2522.15 1699.28 2521.68 1702.7C2521.19 1706.19 2515.15 1717.47 2507.89 1732.32C2497.51 1753.5 2483.89 1781.6 2475.44 1801.32C2473.54 1805.75 2462.91 1829.89 2466.36 1826.25C2486.53 1794.21 2498.97 1766.91 2514.98 1736.85C2515.9 1735.11 2516.78 1733.46 2517.72 1731.7C2537.37 1695.08 2539.26 1694.99 2555.26 1665.51C2563.4 1649.9 2568.9 1636.14 2570.31 1632.38C2572.28 1626.68 2568.33 1638.54 2560.87 1662.67C2556.92 1675.44 2545.49 1696.24 2546.01 1692.87C2539.43 1707.79 2531.5 1724.81 2523.45 1742.26C2509.43 1772.52 2492.74 1803.78 2475.6 1824.49C2470.86 1830.24 2467.85 1832.48 2463.42 1837.36C2453.89 1847.91 2443.2 1858.9 2436.29 1867.36C2428.34 1877.96 2420.22 1883.99 2414.47 1886.75C2398.99 1908.48 2382.51 1927.88 2367.43 1948.08C2357.47 1961.17 2347.28 1974.03 2336.99 1986.71C2326.43 1996.64 2318.69 2005.63 2311.1 2014.65C2306.78 2019.78 2302.5 2024.91 2297.75 2030.19C2297.36 2030.63 2296.97 2031.06 2296.58 2031.49C2271.57 2059.49 2241.87 2081 2207.4 2097.27C2207.33 2097.3 2207.26 2097.33 2207.2 2097.37C2195.56 2101.96 2181.33 2120.4 2148.83 2137.07C2135.13 2142.99 2120.31 2150.51 2105.97 2157.76C2115.36 2153.53 2124.71 2149.44 2133.87 2145.73C2120.97 2151.71 2107.73 2158.34 2094.37 2165.04C2097.22 2163.13 2100.06 2161.21 2102.89 2159.27ZM2045.28 2153.23C2045.29 2153.23 2045.29 2153.23 2045.29 2153.24C2045.28 2153.24 2045.28 2153.24 2045.27 2153.25C2045.28 2153.24 2045.28 2153.24 2045.28 2153.23Z" fill="#4E6397"/>
<path d="M2472.22 2258.99C2471.53 2259.52 2470.83 2260.06 2470.12 2260.61C2440.65 2284.12 2390.4 2312.2 2365.68 2325.6C2359.8 2328.74 2353.69 2332.05 2347.52 2335.45C2347.51 2335.46 2347.47 2335.49 2347.46 2335.5C2331.96 2343.99 2316.03 2351.86 2303.29 2359.63C2291.32 2367.08 2281.51 2374.38 2275.29 2378.1C2271.47 2380.48 2269.85 2381.42 2269.85 2381.43C2269.85 2381.43 2269.85 2381.43 2269.85 2381.43C2269.85 2381.43 2269.85 2381.43 2269.85 2381.43C2270.18 2381.87 2287.54 2368.43 2297.81 2357.41C2295.75 2359.19 2293.71 2361 2291.69 2362.82C2292.09 2362.4 2292.49 2361.98 2292.88 2361.55C2295.37 2359.14 2297.49 2357.04 2299.54 2355.01C2303.24 2351.38 2306.62 2348.03 2311.28 2343.74C2319.84 2335.87 2327.67 2328.94 2335.88 2320.73L2335.84 2320.76C2339.89 2316.67 2343.97 2312.4 2348.38 2307.51C2360.66 2293.88 2368.67 2283.13 2374.51 2273.86C2396.51 2252.13 2415.8 2234.93 2432.92 2219.51C2438.63 2214.38 2444.07 2209.75 2449.21 2205.32C2446.01 2212.25 2444.27 2217.42 2440.32 2224.51C2439.96 2225.13 2439.59 2225.78 2439.2 2226.44C2432.97 2237.4 2420.4 2252.2 2419.05 2257.11C2418.52 2257.72 2412.75 2261.84 2410.05 2264.17C2415.57 2257.38 2422.07 2248.82 2426.88 2241.66C2429.93 2237.16 2434.91 2229.82 2437.46 2224.52C2440.26 2218.92 2440.59 2215.65 2433.97 2220.67C2432.59 2221.71 2430.9 2223.12 2428.84 2224.95C2432.68 2227.62 2424.55 2241.79 2413.9 2255.73C2408.92 2262.49 2393.87 2278.32 2390.41 2282.6C2389.94 2283.2 2390 2283.69 2392.18 2281.86C2396.81 2277.64 2405.38 2268.24 2410 2264.21C2395.96 2281.51 2373.35 2302.71 2355.5 2319.12C2362.54 2313.59 2369.53 2308.04 2376.54 2302.42C2362.33 2316.38 2330.62 2343.56 2362.95 2323.95C2378.38 2314.55 2438.35 2277.57 2464.94 2254.88C2468.4 2252.06 2471.38 2249.59 2473.62 2247.67C2480.34 2241.9 2485.04 2236.88 2492.25 2229.94C2504.37 2218.37 2516.37 2205.62 2523.09 2195.23C2524.95 2192.39 2528.06 2186.92 2531.19 2179.87C2540.33 2160.38 2544.28 2132.12 2545.61 2120.83C2547.28 2108.26 2548.42 2095.22 2549.38 2082.25C2551.39 2054.49 2550.75 2029.96 2557.75 2010.1C2558.74 2007.21 2559.7 2004.37 2560.65 2001.59C2561.32 1999.63 2561.98 1997.65 2562.65 1995.63C2568.59 1977.58 2575.02 1957.02 2584.35 1940.44C2586.27 1937.01 2588.96 1932.98 2591.97 1928.97C2596.28 1923.15 2600.23 1916.22 2602.42 1910.96C2606.62 1900.63 2605.12 1897.43 2609.83 1885C2613.64 1874.93 2622.73 1855.8 2625.23 1847.8C2630.38 1831.32 2635.67 1808.19 2641.83 1790.09C2647.18 1774.3 2649.06 1765.68 2655.72 1752.42C2662.42 1739.17 2673.58 1724.54 2694.79 1702.17C2709.94 1686.3 2741.03 1657.95 2750.96 1648.69C2762.76 1638.01 2765.87 1635.92 2764.99 1639.54C2762.26 1648.1 2723.47 1707.84 2708.75 1744.41C2706.25 1749.27 2697.57 1774.94 2700.9 1770.78C2718.83 1734.51 2736.58 1703.98 2757.6 1670.37C2782.13 1631.72 2783.6 1631.51 2804.79 1601.56C2815.87 1585.73 2824.48 1572.09 2826.82 1568.19C2830.2 1562.43 2823.13 1574.34 2811.03 1599.08C2804.67 1611.95 2790.19 1633.42 2791.23 1629.84C2768.08 1671.39 2734.1 1733.37 2709.82 1768.09C2707.04 1772.19 2705.06 1774.6 2703 1777.43C2701.97 1778.89 2700.87 1780.5 2699.69 1782.4C2685.28 1805.74 2668.23 1835.19 2656.89 1844.78C2643.54 1878.26 2634.21 1910.53 2610.63 1945.84C2605.54 1953.25 2600.92 1961.41 2596.64 1969.9C2588.54 1981.76 2583.66 1992.99 2579.26 2004.29C2577.51 2008.8 2575.84 2013.36 2574.11 2018.06C2573.58 2019.64 2573.09 2021.21 2572.62 2022.83C2567.62 2039.73 2568.37 2059.25 2565.77 2084.53C2564.37 2098.24 2562.64 2112.96 2559.09 2129.9C2555.45 2146.88 2550.32 2165.45 2540.34 2184.44C2524.22 2215.59 2497.56 2239.75 2475.32 2256.65C2484.9 2249.83 2495.03 2242.33 2504.99 2233.54C2493.57 2244.39 2481.82 2253.41 2471.01 2261.59C2468.52 2263.5 2466.02 2265.37 2463.51 2267.22C2465.8 2265.12 2468.07 2262.99 2470.32 2260.83C2470.95 2260.22 2471.58 2259.61 2472.22 2258.99ZM2410.02 2264.19C2410.02 2264.19 2410.02 2264.19 2410.02 2264.19C2410.01 2264.2 2410.01 2264.2 2410 2264.21C2410.01 2264.2 2410.01 2264.19 2410.02 2264.19Z" fill="#4E6397"/>
<path d="M4566.74 1305.99C4577.63 1299.52 4589.97 1289.88 4609.66 1279.66C4628.38 1272.5 4648.08 1248.49 4672.33 1229.82C4688.9 1217.22 4704.3 1208.8 4715.68 1202.55C4728.6 1195.54 4742.05 1188.47 4754.92 1180.72L4753.38 1182.2C4781.12 1156.8 4809.92 1137.18 4824.17 1118.98C4824.17 1118.97 4824.19 1118.95 4824.2 1118.94C4828.04 1114.58 4831.79 1111.24 4835.03 1108.88C4840.51 1104.93 4843.35 1104.3 4843.31 1104.23C4843.31 1104.23 4843.31 1104.23 4843.31 1104.23C4843.3 1103.95 4833.05 1108.71 4825.23 1119.74C4819.61 1127.93 4812.24 1136.69 4806.09 1143.95C4808.85 1140.99 4811.58 1137.99 4814.22 1134.91C4813.69 1135.59 4813.17 1136.27 4812.64 1136.95C4803.34 1147.98 4797.56 1154.76 4787.93 1165.67C4779.87 1174.79 4772.31 1183.3 4765.61 1192.51C4765.41 1192.7 4764.89 1193.27 4764.66 1193.42C4754.9 1202.07 4744.44 1210.64 4732.94 1220.87C4716.59 1235.37 4705.46 1247.43 4698.24 1258.1C4696.55 1260.58 4695.04 1263.01 4693.65 1265.39C4677.54 1284.4 4661.66 1309.56 4635.24 1325.02C4616.94 1336.69 4596.58 1356.55 4569.23 1368.16C4580.65 1359.75 4585.77 1353.05 4594.26 1344.06C4604.11 1333.56 4618.4 1318.44 4627.2 1310.77C4630.96 1307.64 4633.48 1304.89 4634.48 1303.19C4635.51 1302.46 4644.62 1296.03 4648.49 1292.07C4643.08 1298.74 4636.01 1306.14 4628.08 1312.33C4624.63 1315.25 4621.31 1318.5 4618.29 1321.63C4606.99 1333.92 4572.77 1368.2 4609.9 1341.81C4606.7 1339.88 4616.55 1326.3 4629.29 1314.48C4633.35 1311.21 4637.35 1307.58 4641.08 1303.74C4651.34 1294.29 4670.1 1267.57 4674.57 1261.14C4675.17 1260.24 4675.13 1259.64 4672.34 1262.8C4666.43 1269.88 4655.59 1285.41 4648.56 1292.01C4660.13 1278.01 4671.01 1260.16 4685.77 1244.49C4698.69 1230.74 4713.82 1218.83 4727.12 1208.42C4716.2 1216.08 4705.27 1223.86 4694.86 1232.45C4716.85 1211.93 4767.25 1175.92 4718.77 1204.03C4710.75 1208.85 4694.24 1218.05 4675.37 1233.14C4652.6 1251.47 4633.07 1276.88 4613.01 1285.61C4586.24 1300.71 4570.89 1313.51 4561.48 1318.36C4552 1323.79 4545.03 1327.57 4537.03 1328.49C4535.25 1328.66 4533.61 1328.64 4532.09 1328.45C4523.43 1327.81 4507.95 1315.95 4489.87 1309.73C4484.53 1308.24 4467.12 1301.99 4446.87 1312.89C4441.77 1315.83 4421.57 1323.25 4408.09 1331.48C4393.66 1339.79 4381.76 1350.03 4375.24 1356.57C4373.76 1358.03 4372.34 1359.49 4370.91 1361.03C4355.11 1378.26 4332.2 1394.98 4309.06 1409.58C4286.14 1423.96 4260.98 1437.84 4241.41 1456.73C4237.45 1460.58 4234.07 1464.38 4230.89 1468.01C4228.81 1470.39 4226.78 1472.8 4224.73 1475.21C4209.89 1492.25 4193.97 1513.85 4169.78 1514.64C4164.69 1514.65 4159.34 1513.79 4155.18 1510.39C4154.6 1509.9 4154.04 1509.36 4153.51 1508.74C4146.9 1501.54 4143.89 1487.97 4136.66 1481.74C4134.97 1480.36 4132.82 1479.27 4131.07 1478.92C4130.2 1478.74 4129.44 1478.77 4129.06 1478.94C4128.66 1479.11 4128.72 1479.27 4128.71 1479.44C4128.35 1479.88 4128 1480.31 4127.65 1480.74C4117.69 1493.81 4117.65 1497.81 4108.42 1514.09C4104.51 1521.24 4098.89 1532.06 4095.18 1542.65C4091.77 1552.1 4089.16 1561.26 4088.04 1566.73C4085.58 1578.58 4083.75 1592.85 4081.42 1608.06C4079 1623.82 4076.37 1639.59 4074 1653.32C4072.03 1664.74 4071.01 1673.34 4070.16 1681.26C4068.06 1698.58 4069.14 1715.68 4056.14 1763.48C4053.33 1773 4050 1783.75 4045.98 1795.98C4036.05 1826.89 4011.67 1885.32 4000.91 1903.41C3988.77 1924.96 3982.94 1928.85 3985 1923.35C3993.09 1910.96 4015.89 1814.72 4019.17 1755.55C4019.33 1753.58 4019.46 1751.68 4019.56 1749.83C4020.53 1742.36 4020.14 1701.17 4018.45 1708.86C4017.17 1725.2 4015.95 1740.02 4013.9 1754.42C4007.69 1797.28 4002.31 1835.95 3990.72 1878.13C3985.33 1897.13 3980.35 1910.35 3974.84 1919.9C3961.01 1943.96 3954.53 1954.27 3936.09 1988.17C3922.52 2013.43 3912.02 2035.23 3909.25 2041.13C3905.19 2050.06 3913.67 2031.47 3928.87 1993.84C3936.91 1974 3955.18 1940.27 3953.79 1945.31C3958.26 1935.98 3963.05 1926.1 3968.35 1915.81C3987.62 1870.23 3994.43 1803.8 4004.87 1752.48C4007.09 1740.78 4008.89 1729.6 4010.7 1718.96C4012.65 1707.5 4014.33 1701.85 4016.46 1691.06C4017.76 1684.54 4019.25 1677.65 4021.11 1670.64C4028.67 1642.76 4039.03 1616.08 4047.23 1597.97C4049.99 1591.95 4052.58 1586.78 4054.97 1582.95C4058.61 1565.96 4062.65 1548.57 4068.58 1531.31C4077.47 1505.26 4093.12 1481.41 4111.31 1461.35C4115.68 1456.79 4122.82 1454.14 4127.89 1453.94C4133.1 1453.62 4136.81 1454.56 4139.86 1455.53C4145.92 1457.65 4149.76 1460.05 4154.15 1463.94C4162.83 1472.22 4165.59 1479.79 4168.28 1484.77C4170.79 1489.87 4172.79 1493.12 4174.07 1494.09C4172.78 1491.88 4171.22 1490.86 4171.04 1490.55C4170.79 1490.21 4171.51 1490.26 4172.63 1490.15C4173.79 1490.01 4174.92 1489.71 4176.26 1489.22C4186.17 1487.95 4200.08 1474.87 4211.81 1461.64C4217.05 1455.93 4222.18 1449.87 4229.75 1442.79C4232.45 1440.29 4235.21 1437.92 4238.03 1435.63C4261.11 1417.3 4282.25 1406.22 4300.76 1394.73C4321.69 1381.74 4343.17 1367.11 4360.16 1350.28C4364.31 1346.1 4368.76 1342.11 4373.48 1338.34C4384.88 1329.23 4397.56 1321.77 4410.37 1315.94C4416.79 1313.01 4423.21 1310.49 4429.28 1308.28C4432.31 1307.18 4435.22 1306.16 4437.76 1305.26C4439.01 1304.81 4440.15 1304.4 4441.01 1304.07C4441.85 1303.77 4442.47 1303.48 4442.01 1303.75C4455.26 1296.42 4472.92 1295.78 4483.96 1298.5C4495.42 1301.07 4503.04 1304.93 4509.46 1308.03C4521.91 1314.51 4530.52 1318.37 4532.62 1318.63C4537.15 1320.04 4549.55 1316.29 4562.37 1308.55C4549.38 1315.85 4536.98 1318.92 4532.98 1317.04C4539.12 1319.54 4559.82 1309.8 4579.72 1296.18C4575.19 1299.63 4570.9 1302.94 4566.74 1305.99ZM4648.54 1292.04C4648.54 1292.03 4648.54 1292.03 4648.54 1292.03C4648.54 1292.02 4648.55 1292.02 4648.56 1292.01C4648.55 1292.02 4648.55 1292.03 4648.54 1292.04Z" fill="#4E6397"/>
<path d="M4898.31 202.08C4904.69 207.958 4913.53 214.5 4924.29 221.39C4954.71 240.919 4972.1 266.085 4991.72 284.559C5006.62 299.6 5022.34 310.365 5034.64 316.689C5040.17 319.579 5046.09 322.187 5052.33 324.4C5077.84 332.976 5086.62 355.867 5092.41 373.082C5098.03 391.14 5100.38 408.2 5102.41 422.343C5103.3 428.992 5105.87 434.831 5109.68 438.457C5112.42 441.037 5115.61 442.665 5118.06 444.337C5123.72 448.104 5125.4 450.475 5125.45 450.412C5125.43 450.426 5124.02 448.79 5121.12 446.696C5118.3 444.479 5113.56 442.661 5109.06 439.191C5104.5 435.482 5101.36 429.303 5099.75 422.925C5098.35 417.456 5096.82 411.981 5095.26 407.141C5096.31 411.062 5097.3 415.004 5098.26 418.958C5098.01 418.125 5097.76 417.293 5097.5 416.478C5093.62 402.573 5090.51 394.181 5084.51 381.126C5076.18 363.698 5064.83 346.563 5047.89 344.59C5042.07 343.828 5036.02 342.78 5029.65 341.35C5001.33 334.781 4982.03 324.994 4966.58 317.515C4966.22 317.264 4965.86 317.01 4965.5 316.756C4938.13 297.765 4916.78 276.731 4898.79 267.946C4876.71 256.542 4854.24 241.568 4838.98 219.254C4849.73 228.983 4857.93 233.112 4869.58 239.241C4879.89 244.637 4894.16 250.903 4905.89 254.983C4914.12 257.694 4921 261.167 4924.08 261.737C4925.12 262.295 4932.92 269.18 4936.97 272.622C4927.29 266.32 4915.37 259.603 4905.05 256.509C4903.73 256.057 4902.43 255.609 4901.16 255.165C4883.56 250.48 4837.85 223.652 4877.63 254.146C4878.28 250.997 4889.34 254.592 4903.74 258.914C4910.13 260.564 4917.51 263.757 4924.98 267.944C4935.43 273.484 4961.63 293.561 4968.72 297.614C4969.67 298.181 4970.27 298.139 4966.93 295.419C4959.42 289.683 4944.06 278.46 4937.04 272.679C4949.3 280.6 4963.22 291.263 4978.02 301.387C4996.35 314.126 5017.19 324.335 5036.26 329.29C5023.78 325.247 5011.85 319.597 5000.63 312.705C5015.25 321.504 5041.89 329.135 5051.27 329.215C5056.3 329.854 5057.63 329.546 5051.74 327.079C5048.75 325.764 5043.26 323.801 5035.07 320.019C5026.01 315.959 5007.06 305.74 4988.68 288.297C4968.51 270.413 4949.32 245.036 4920.9 227.587C4903.2 216.98 4891.42 206.965 4885.88 200.962C4880.67 195.452 4876.92 190.914 4873.58 185.068C4872.23 182.678 4870.84 180.015 4869.37 176.982C4860.03 157.071 4850.11 133.432 4838.86 118.479C4835.41 113.755 4827.89 104.463 4816.59 95.144C4787.79 73.5804 4754.28 65.4577 4738.33 60.1116C4717.82 53.9277 4695.69 48.4415 4671.98 45.9095C4643.54 43.0704 4615.15 40.3511 4589.57 35.8502C4579.54 34.2522 4568.21 29.1825 4556.72 25.2119C4553.61 24.1353 4550.35 23.0942 4546.92 22.1889C4536.98 19.5305 4524.58 17.9842 4513.3 22.2371C4493.3 30.0853 4476.66 42.2686 4460.36 51.8233C4455.87 54.479 4450.36 57.4575 4444.4 60.3018C4433.6 65.4466 4422.13 71.3762 4414.4 76.3936C4400.39 85.5943 4399.09 89.5036 4382.96 100.972C4382 101.668 4380.97 102.398 4379.87 103.171C4366.85 112.37 4344.11 129.638 4334.92 137.157C4314.9 154.009 4286.57 178.451 4254.81 190.186C4241.3 195.219 4229.85 197.972 4218.4 199.172C4196.13 203.327 4176.94 200.919 4112.25 216.483C4087.58 222.301 4043.91 239.387 4022.03 252.693C4017.94 255.047 4014.7 256.872 4012.04 258.387C3991.53 269.978 3986.54 272.318 3989.81 267.966C3992.26 264.679 4002.11 256.055 4015.71 244.308C4044.69 217.988 4099.22 185.326 4138.25 170.844C4145.35 167.276 4187.24 154.529 4178.96 155.385C4112.31 168.254 4065.15 194.81 4017.35 231.702C4014.93 233.616 4012.61 235.496 4010.43 237.292C3964.38 275.78 3960.47 276.915 3920.66 311.555C3898.99 330.915 3883.38 349.775 3879.31 354.918C3873.51 362.897 3884.85 345.76 3911.88 314.599C3926.21 298.086 3955.89 273.242 3952.71 277.427C3968.22 262.839 3986.07 246.531 4004.79 229.793C4050.18 188.189 4115.08 156.935 4166.23 150.874C4178.92 149.209 4185.19 149.534 4196.49 149.09C4203.21 148.861 4210.08 148.804 4217.06 148.953C4247.07 150.318 4282.13 132.739 4298.84 128.337C4321.03 112.762 4340.9 94.7206 4365.22 77.7753C4387.27 62.7295 4410.6 48.883 4434.99 36.9368C4446.91 30.9123 4459.3 23.3017 4473.14 15.8614C4484.74 10.7579 4496.09 5.93136 4508.29 2.37709C4526.11 -2.53969 4542.04 1.15028 4553.42 4.61576C4566.7 8.79169 4577.04 13.671 4585.75 16.5632C4588.99 17.6551 4591.77 18.3667 4593.86 18.6611C4620.54 23.7065 4646.59 26.1648 4674.36 29.4051C4700.58 32.6829 4725.17 39.2253 4752.09 49.1183C4775.09 58.4266 4795.37 64.7796 4823.52 87.2596C4855.66 116 4869.72 155.677 4881.77 180.453C4884.85 186.923 4889.27 193.035 4895.16 198.969C4889.41 192.738 4885.32 186.434 4882.65 179.953C4880.62 175.392 4878.48 170.136 4876.21 164.573C4878.63 170.059 4880.92 175.241 4883.09 179.708C4887.86 190.255 4897 200.34 4909.98 210.025C4905.81 207.434 4901.9 204.794 4898.31 202.08ZM4937.01 272.661C4937.01 272.66 4937.01 272.659 4937.02 272.658C4937.02 272.665 4937.03 272.672 4937.04 272.679C4937.03 272.672 4937.02 272.667 4937.01 272.661Z" fill="#37395C"/>
<path d="M4339.65 357.09C4332.15 367.624 4315.82 383.867 4305.11 391.103C4305.07 391.315 4304.57 391.794 4304.52 392.003C4303.8 392.503 4303.12 392.948 4302.47 393.343C4296.33 397.107 4290.43 399.229 4285.64 401.93C4277.92 405.973 4272.89 413.429 4270.97 417.061C4270.16 418.559 4269.91 419.22 4269.91 419.221C4269.91 419.221 4269.91 419.221 4269.91 419.221C4269.91 419.221 4269.91 419.221 4269.91 419.221C4270.04 419.227 4272.35 411.498 4273.45 405.761C4273.07 406.722 4272.71 407.693 4272.39 408.672C4272.41 408.445 4272.44 408.219 4272.46 407.994C4273.36 404.388 4273.56 401.922 4274.82 398.087C4275.18 397.026 4275.56 395.996 4275.97 394.988C4278.06 389.651 4280.94 385.04 4282.11 378.955C4282.27 378.027 4282.38 377.142 4282.42 376.298L4282 376.926C4282.33 371.093 4281.56 366.242 4280.31 361.964C4283.07 347.304 4287.04 336.215 4293.01 326.858C4294.41 330.54 4296.08 333.29 4297.21 336.948C4299.03 342.728 4298.77 351.38 4300.84 354.262C4300.83 354.588 4299.26 356.734 4298.77 357.965C4298.58 354.299 4298.06 349.706 4297.33 345.896C4296.49 340.541 4293.79 327.338 4289.18 336.726C4293.43 338.341 4295.59 345.831 4296.47 353.332C4296.99 356.961 4296.03 365.472 4296.15 367.811C4296.17 368.134 4296.5 368.428 4296.92 367.456C4297.63 365.194 4297.96 360.119 4298.76 357.985C4299.23 366.21 4296.99 376.142 4294.08 384.334C4294.07 384.375 4293.98 384.465 4293.97 384.505C4293.47 385.628 4292.95 386.702 4292.43 387.724C4293.15 386.814 4293.85 385.877 4294.53 384.907C4294.54 384.858 4294.66 384.746 4294.67 384.697C4295.84 382.762 4296.96 380.799 4298.03 378.815C4297.39 380.667 4296.69 383.131 4295.99 385.509C4295.98 385.579 4295.82 385.737 4295.8 385.806C4293.14 392.885 4289.65 398.49 4299.79 391.93C4300.39 391.5 4301.12 390.931 4301.98 390.203C4302.03 390.035 4302.43 389.649 4302.46 389.478C4311.38 382.211 4330.51 358.388 4334.35 350.919C4336.01 348.059 4336.62 345.608 4338.37 342.562C4341.3 337.457 4345.24 333.011 4347.17 329.515C4348.19 327.678 4349.74 322.378 4351.03 316.916C4352.22 311.967 4353.24 306.81 4353.96 304.183C4357.92 289.672 4362.95 272.398 4363.96 257.888C4364.02 257.062 4364.06 256.211 4364.08 255.341C4364.26 247.535 4363.01 238.292 4363.27 230.766C4363.41 226.82 4365.11 221.269 4364.91 217.302C4364.68 212.64 4362.3 210.783 4362.35 205.367C4362.39 200.971 4364.7 193.321 4364.63 189.914C4364.4 182.889 4362.66 172.799 4362.95 165.403C4363.47 153.378 4359.84 150.892 4377.1 132.02C4382.89 125.871 4395.97 114.603 4399.99 110.852C4404.96 106.537 4406.58 105.707 4407.49 107.416C4409.09 111.39 4404.22 137.685 4406.61 154.382C4406.78 156.522 4408.36 168.479 4409.67 166.831C4412.62 150.507 4412.54 136.864 4415.29 121.94C4418.26 104.796 4419.32 104.794 4423.12 91.5569C4424.99 84.5575 4425.74 78.4177 4425.83 76.7387C4425.9 74.1951 4425.71 79.4663 4427.16 90.6826C4427.85 96.5827 4425.67 106.074 4424.88 104.432C4424.43 123.225 4424.93 151.354 4416.59 166.592C4415.13 169.26 4413.62 170.228 4412.11 172.509C4406.2 181.456 4399.07 192.203 4391.79 194.652C4389.6 212.3 4387.76 230.184 4385.39 247.908C4382.8 253.235 4381.9 258.131 4381.14 263.08C4380.72 265.872 4380.32 268.7 4379.67 271.594C4376.33 286.372 4373.35 297.999 4366.68 312.421C4365.22 315.548 4363.63 318.785 4361.97 321.945C4356.06 333.242 4348.75 345.031 4340.6 355.899C4343.76 352.464 4346.85 349.021 4349.87 345.579C4346.14 350.846 4342.19 356.095 4337.99 361.274C4338.57 359.886 4339.12 358.494 4339.65 357.09ZM4298.76 357.975C4298.76 357.976 4298.76 357.977 4298.77 357.977C4298.77 357.98 4298.76 357.983 4298.76 357.985C4298.76 357.982 4298.76 357.979 4298.76 357.975Z" fill="#37395C"/>
<path d="M4779.74 522.106C4770.39 525.736 4752.81 528.894 4743.82 529.565C4741.62 529.744 4739.35 529.97 4737.1 530.269C4737.04 530.404 4736.59 530.593 4736.53 530.724C4724.88 532.286 4714.65 533.081 4710.56 534.5C4709.31 534.863 4708.82 535.077 4708.82 535.076C4708.82 535.076 4708.82 535.076 4708.82 535.076C4708.82 535.076 4708.82 535.076 4708.82 535.076C4708.88 535.19 4714.27 532.13 4717.05 528.653C4716.43 529.098 4715.81 529.548 4715.19 530.004C4715.3 529.868 4715.41 529.73 4715.51 529.59C4717.5 527.666 4718.43 526.018 4720.17 523.735C4722.14 521.129 4723.91 518.806 4725.45 516.005L4725.1 516.288C4725.97 514.597 4726.85 512.763 4727.69 510.569C4729.87 504.822 4730.77 499.723 4730.97 494.936C4737.65 484.082 4744.71 477.685 4752.47 473.921C4752.38 477.454 4752.79 480.451 4752.52 483.828C4752.1 489.179 4749.24 495.654 4750.08 498.952C4749.97 499.192 4748.09 500.025 4747.35 500.73C4748.23 497.795 4749.19 493.999 4749.79 490.696C4750.74 486.161 4752.94 474.66 4746.19 479.327C4749.06 482.854 4748.35 489.709 4746.84 495.965C4746.15 499.022 4743.04 505.185 4742.58 507.099C4742.51 507.369 4742.71 507.753 4743.3 507.196C4744.44 505.764 4746.07 501.978 4747.34 500.741C4745.11 508.234 4739.9 515.755 4735.84 521.376C4737.78 519.826 4739.69 518.264 4741.61 516.656C4739.89 518.957 4737.53 522.818 4736.58 525.153C4735.66 527.539 4736.27 528.606 4741.72 527.419C4747.61 526.201 4771.59 518.193 4777.4 514.655C4779.53 513.489 4780.72 512.05 4783.02 510.805C4785.94 509.227 4789.21 508.243 4791.79 507.22C4792.21 506.729 4793.93 505.761 4794.28 505.221C4795.04 504.798 4795.75 504.365 4796.35 503.91C4798.96 502.141 4805.51 490.889 4807.86 487.178C4814.39 477.657 4822.28 466.488 4826.19 455.745C4826.42 455.128 4826.64 454.48 4826.84 453.811C4828.6 447.905 4829.55 440.164 4831.36 434.505C4832.33 431.517 4835 427.988 4835.67 424.868C4836.47 421.193 4834.9 418.647 4836.11 414.537C4837.13 411.149 4840.8 406.344 4841.54 403.675C4842.91 398.201 4843.81 389.633 4845.82 384.107C4849.19 375.12 4846.63 371.461 4866.16 365.213C4872.63 363.297 4886.75 361.082 4891.12 360.335C4896.48 359.552 4898.08 359.75 4898.37 361.472C4898.53 365.207 4887.49 382.4 4885.54 396.111C4885.12 397.829 4883.65 407.532 4885.15 406.917C4891.48 396.044 4894.79 385.807 4901.01 376.083C4908.03 364.892 4908.99 365.391 4915.87 357.699C4919.44 353.557 4921.87 349.551 4922.48 348.364C4923.34 346.551 4921.47 350.284 4919.48 359.133C4918.33 363.779 4913.94 369.569 4913.71 367.985C4908.11 381.489 4901.61 402.527 4891.04 410.014C4889.2 411.305 4887.68 411.346 4885.87 412.351C4878.8 416.295 4870.31 421.162 4863.58 419.699C4857.75 432.138 4852.32 445.03 4846.59 457.565C4843.24 460.536 4841.44 463.916 4839.79 467.36C4838.8 469.358 4837.9 471.338 4836.74 473.288C4830.75 483.259 4825.81 490.94 4816.93 499.24C4812.13 503.7 4806.58 508.119 4800.58 512.128C4800.1 512.868 4797.74 514.197 4797.16 514.871C4791.84 517.501 4786.31 519.812 4780.82 521.776C4784.23 521.045 4787.63 520.283 4791.03 519.484C4786.52 521.216 4781.96 522.792 4777.32 524.228C4778.15 523.534 4778.94 522.837 4779.74 522.106ZM4747.34 500.733C4747.34 500.734 4747.35 500.736 4747.35 500.737C4747.34 500.738 4747.34 500.74 4747.34 500.741C4747.34 500.739 4747.34 500.736 4747.34 500.733Z" fill="#37395C"/>
<path d="M2495.56 669.774C2469.4 663.579 2425.6 648.187 2405.3 638.859C2392.57 633.189 2378.61 626.933 2365.87 621.949L2366.28 622.01C2360.18 620.019 2353.73 618.863 2348.04 617.263C2340.55 615.055 2334.8 612.964 2330.71 611.952C2327.41 611.083 2326.01 610.83 2326 610.824C2326 610.824 2326 610.824 2326 610.824C2326 610.824 2326 610.824 2326 610.824C2326.01 610.768 2337.9 613.237 2348.46 613.87C2350.28 613.935 2352.07 613.903 2353.74 613.821C2351.99 613.739 2350.24 613.637 2348.5 613.48C2348.22 613.454 2347.93 613.427 2347.64 613.398C2347.93 613.396 2348.22 613.392 2348.52 613.384C2348.66 613.381 2348.8 613.377 2348.95 613.372C2355.85 613.564 2360.25 612.63 2367.35 612.487C2367.4 612.503 2367.55 612.505 2367.6 612.524C2367.93 612.539 2368.27 612.557 2368.62 612.575C2381.76 613.218 2392.96 614.461 2408.25 614.053C2422.26 613.603 2432.43 611.863 2440.71 609.58C2471.26 610.247 2495.96 612.792 2518.15 617.39C2512.23 619.409 2508.2 621.537 2502.07 623.256C2492.43 626.01 2475.89 627.068 2472.09 629.648C2471.47 629.681 2466.21 628.397 2463.54 628.094C2470.29 627.327 2478.47 626.078 2485.16 624.747C2494.61 623.062 2517.92 618.291 2496.41 614.989C2496.56 619.6 2483.87 622.946 2470.44 625.004C2463.98 626.089 2447.29 626.438 2443.1 626.952C2442.52 627.032 2442.23 627.417 2444.4 627.697C2449.13 628.057 2458.84 627.586 2463.49 628.089C2446.45 630.124 2422.88 628.874 2404.49 627.101C2411.15 628.413 2417.85 629.641 2424.56 630.773C2409.37 630.292 2377.87 625.67 2405.03 635.762C2419.6 641.887 2484.94 660.602 2503.11 663.367C2509.65 664.602 2514.59 664.81 2521.54 666.086C2528.36 667.338 2534.98 668.945 2541.04 670.36C2545.12 671.333 2549.07 672.236 2552.33 672.79C2560.33 674.298 2593.63 674.922 2605.13 675.351C2635.38 676.874 2671.48 678.955 2699.55 677.48C2701.16 677.396 2702.79 677.287 2704.44 677.156C2719.26 675.992 2735.88 673.147 2750.29 672.118C2757.86 671.579 2769.54 672.34 2776.95 671.456C2785.59 670.415 2787.49 667.705 2797.78 666.812C2806.04 666.105 2821.75 667.033 2828.37 666.402C2828.5 666.39 2828.62 666.378 2828.74 666.365C2842.07 664.871 2860.11 661.317 2874.59 660.323C2898.08 658.74 2900.47 654.655 2948.68 668.748C2951.35 669.526 2954.42 670.511 2957.73 671.626C2972.33 677.186 2995.09 683.072 3003.33 685.077C3015.09 688.08 3017.82 689.211 3015.24 690.727C3010.58 693.056 2982.23 696.488 2954.87 698.83C2944.08 699.656 2933.62 700.814 2925.04 702.18C2921.08 702.727 2899.37 706.415 2903.4 707.44C2921.84 707.537 2938.09 706.65 2954.1 706.088C2967.19 705.676 2979.82 704.494 2993.23 703.324C3028.01 699.906 3028.74 700.507 3056.58 698.83C3071.16 697.788 3083.43 696.211 3086.74 695.685C3091.71 694.839 3081.32 696.487 3061.02 702.208C3050.31 705.149 3030.86 706.948 3033.38 705.559C3010.89 709.911 2982.23 716.465 2952.98 716.751C2936.81 716.991 2921.29 716.451 2908.42 714.334C2902.4 713.342 2899.59 712.006 2894.27 710.895C2873.35 706.554 2848.33 701.345 2838.61 694.487C2834.15 694.62 2829.68 694.761 2825.11 694.896C2794.59 695.842 2764.09 696.81 2733.58 697.403C2721.72 695.711 2711.86 695.65 2702.03 695.739C2696.47 695.79 2690.89 695.882 2684.98 695.728C2654.79 694.904 2630.82 693.92 2598.81 689.648C2579.87 687.1 2559.78 683.757 2539.79 679.81C2525.79 677.066 2511.85 673.938 2498.45 670.557C2507 673.202 2515.53 675.765 2524.14 678.259C2511.67 675.358 2499.17 672.205 2486.75 668.784C2489.71 669.148 2492.61 669.473 2495.56 669.774ZM2463.51 628.086C2463.51 628.087 2463.51 628.089 2463.51 628.09C2463.51 628.09 2463.5 628.089 2463.49 628.089C2463.5 628.088 2463.51 628.087 2463.51 628.086Z" fill="#37395C"/>
<path d="M837.817 1345.86C820.004 1360.46 798.05 1377.11 774.17 1393.65C744.188 1414.42 712.286 1434.71 685.664 1455.52C655.832 1478.69 628.813 1495.51 610.144 1509.23C597.999 1517.9 585.532 1527.27 573.168 1537.05C542.267 1561.6 509.826 1586.08 480.652 1604.61L481.38 1603.93C462.035 1625.15 442.259 1639.69 429.738 1650.17L429.784 1650.12C428.422 1651.59 427.24 1653.07 426.201 1654.5C420.477 1662.86 418.959 1666.95 418.859 1666.88C418.859 1666.88 418.859 1666.88 418.859 1666.88C418.859 1666.88 418.859 1666.88 418.859 1666.88C419.071 1667.03 421.847 1659.11 429.392 1649.78C442.565 1638.18 461.844 1620.82 474.012 1604.74C470.061 1609.45 465.977 1614.03 461.748 1618.49C462.62 1617.51 463.458 1616.54 464.315 1615.53C469.208 1610.04 473.203 1605.09 476.88 1600.22C476.95 1600.15 477.153 1599.94 477.239 1599.89C486.666 1592.43 494.893 1585.37 505.866 1575.65C525.232 1558.41 542.163 1542.04 560.487 1523.3C569.625 1513.94 579.26 1504.24 589.931 1493.69C619.554 1464.52 641.307 1444.33 655.509 1426.73C656.326 1425.93 657.14 1425.14 657.953 1424.33C687.32 1395.77 716.661 1373.51 742.774 1352.51C771.891 1329.2 798.185 1307.07 822.344 1285.32C826.17 1281.87 829.968 1278.46 833.737 1275.1C830.28 1279.59 827.272 1283.63 824.401 1287.53C818.738 1295.28 813.537 1302.4 806.009 1311.27C791.85 1328.18 765.985 1352.86 753.038 1365.96C749.937 1369.14 747.618 1371.68 746.456 1373.34C745.082 1374.56 731.929 1383.9 725.51 1388.9C733.724 1381.39 742.996 1372.89 751.873 1364.44C758.603 1358.03 765.116 1351.61 770.901 1345.71C790.498 1326.57 834.465 1276.92 785.884 1318.82C789.984 1320.39 773.289 1340.36 750.408 1362.52C746.467 1366.35 742.346 1370.26 738.15 1374.19C724.458 1386.93 687.035 1419.45 678.789 1428.59C677.635 1429.82 677.435 1430.52 682.344 1426.27C692.924 1416.67 714.343 1397.57 725.403 1388.99C709.365 1403.69 689.954 1420.5 671.114 1439.15C646.729 1463.14 618.507 1485.29 595.915 1506.37C611.285 1493.19 627.128 1480.55 643.014 1467.81C608.38 1496.66 539.846 1560.96 606.299 1508.56C619.208 1498.32 648.337 1479.07 682.439 1451.89C708.61 1430.5 740.84 1409.16 770.066 1388.27C804.432 1363.79 833.239 1339.96 847.729 1327.06C850.264 1324.82 852.67 1322.64 854.993 1320.5C866.155 1310.21 875.606 1301.08 888.583 1289.15C902.092 1276.71 915.679 1264.24 927.794 1251.88C938.681 1240.82 948.535 1230.63 956.492 1221.98C961.491 1216.54 970.869 1205.71 982.027 1192.5C999.339 1171.79 1022.68 1146.19 1040.9 1125.9C1049.6 1116.21 1055.92 1107.57 1060.37 1101.54C1070.68 1087.48 1080.09 1073.14 1090.16 1059.73C1106.77 1037.55 1128.46 1016.93 1151.33 997.765C1176.32 977.004 1194.84 950.479 1206.57 923.454C1213.74 906.776 1219.94 891.183 1227.05 877.376C1229.11 873.357 1231.29 869.351 1233.63 865.406C1238.31 857.534 1243.66 849.895 1250.03 842.961C1273.25 816.797 1300.2 792.71 1327.98 774.472C1333.32 770.871 1339.67 766.871 1346.47 762.762C1363.17 752.675 1381.78 740.619 1394.45 731.808C1415.52 717.323 1417.96 712.288 1444.68 696.58C1458.39 688.6 1481.25 677.615 1501.04 669.222C1513.22 664.008 1524.44 660.339 1531.42 657.95C1548.37 652.049 1567.58 646.861 1584.11 639.227C1613.35 627.782 1640.4 623.83 1665.85 620.883C1695.61 617.984 1714.57 616.935 1738.47 619.104C1760.54 621.029 1785.64 629.029 1816.68 638.875C1832.59 644.019 1854.95 646.59 1887.07 655.874C1888.52 656.373 1890.34 656.911 1892.14 657.403C1918.14 664.293 1966.8 671.872 2002.43 669.378C2026.31 667.725 2045.51 666.97 2056.66 666.271C2092.05 664.238 2100.12 663.811 2092.65 666.601C2084.5 669.686 2049.27 675.994 2004.9 684.345C1966.97 691.765 1920.8 692.574 1879.32 686.846C1860.72 683.625 1842.65 683.096 1826.48 681.618C1823.12 681.313 1815.58 680.647 1806.59 679.245C1783.82 675.351 1755.06 670.362 1763.14 673.114C1777.16 676.311 1791.17 680.219 1805.59 683.219C1832.05 688.631 1855.94 688.978 1877.7 693.345C1921.83 700.087 1962.27 700.049 2006.25 692.549C2013.55 691.101 2021.21 689.846 2029 688.527C2127.36 670.881 2133.95 672.403 2205.88 649.462C2208.48 648.48 2211.17 647.443 2213.94 646.37C2254.36 629.579 2289.97 620.431 2300.05 620.122C2315.26 619.282 2282.32 617.776 2227.27 645.168C2221.44 647.8 2214.67 650.858 2207.52 653.926C2177.91 666.701 2141.77 673.802 2147.74 671.711C2106.76 683.274 2056.74 693.043 2007.92 702.623C1962.73 711.107 1920.19 711.157 1875.2 703.34C1853.03 698.598 1828.1 697.356 1803.6 691.191C1794.15 688.823 1785.52 686.186 1777.51 683.709C1760.39 678.431 1752.84 675.251 1738.42 672.075C1736.1 671.583 1733.76 671.129 1731.4 670.718C1685.08 663.222 1625.47 666.114 1595.2 671.705C1587.72 673.451 1581.21 674.366 1575.98 674.775C1552.96 681.678 1531.36 686.896 1511.42 696.067C1456.97 719.367 1410.76 751.76 1358.58 784.898C1341.38 795.516 1324.76 806.405 1309.52 818.143C1291.24 830.54 1277.55 843.532 1263.36 857.539C1257.96 862.977 1253.28 869.216 1248.98 876.151C1241.71 887.861 1235.65 901.421 1228.73 917.213C1226.7 921.82 1224.66 926.505 1222.54 931.246C1208.22 962.817 1187.81 989.898 1161.85 1011.2C1139.93 1029.37 1119.54 1048.18 1102.74 1069.74C1091.15 1084.52 1079.54 1102.25 1063.21 1121.97C1059.43 1126.49 1055.39 1131.06 1051.01 1135.6C1030.29 1157 1009.67 1177.55 989.815 1199.41C971.948 1219.02 953.654 1238.85 934.864 1258.39C910.243 1283.9 885.013 1305.33 860.69 1326.64C855.415 1331.24 850.114 1335.75 844.798 1340.17C850.221 1335.82 855.607 1331.41 860.951 1326.92C875.885 1314.42 890.879 1301.92 905.946 1288.74C891.128 1302.18 876.36 1314.93 861.639 1327.67C847.242 1340.13 832.51 1352.08 817.527 1363.57C824.369 1357.78 831.135 1351.87 837.817 1345.86ZM725.44 1388.95C725.441 1388.95 725.442 1388.95 725.443 1388.96C725.429 1388.97 725.416 1388.98 725.403 1388.99C725.416 1388.97 725.427 1388.96 725.44 1388.95Z" fill="#37395C"/>
<path d="M1334.21 1155.06C1353.89 1154.64 1386.98 1159.22 1402.65 1163.16C1411.62 1165.31 1421.44 1167.61 1430.43 1169.32L1430.27 1169.34C1441.57 1171.57 1452.81 1169.62 1458.2 1168.59C1460.57 1168.1 1461.54 1167.82 1461.55 1167.82C1461.55 1167.82 1461.55 1167.82 1461.55 1167.82C1461.47 1167.69 1450.47 1171.63 1443.02 1175.03C1444.43 1174.61 1445.83 1174.16 1447.22 1173.69C1446.94 1173.83 1446.66 1173.98 1446.37 1174.13C1441.52 1176.1 1438.55 1177.76 1433.24 1179.46C1432.64 1179.65 1432.04 1179.83 1431.44 1180C1431.42 1180 1431.37 1180.01 1431.35 1180.01C1423.08 1182.34 1415.59 1183.97 1405.99 1187.89C1396.62 1191.78 1390.12 1195.93 1385.04 1200.14C1364.28 1206.85 1347.36 1210.11 1331.82 1211.09C1335.21 1207.7 1337.32 1204.67 1340.95 1201.54C1346.66 1196.56 1357.54 1191.6 1359.51 1188.2C1359.92 1188.02 1363.74 1188.02 1365.62 1187.67C1361.27 1190.02 1356 1193.18 1351.85 1196.06C1345.86 1199.94 1331.73 1210.13 1346.63 1208.17C1345.45 1203.75 1353.07 1197.49 1361.67 1192.31C1365.76 1189.72 1376.93 1185.4 1379.67 1183.89C1380.04 1183.68 1380.14 1183.24 1378.63 1183.48C1375.34 1184.27 1368.89 1187.05 1365.65 1187.67C1376.71 1181.64 1392.91 1177.19 1405.74 1174.33C1400.94 1174.71 1396.15 1175.17 1391.36 1175.71C1401.75 1172.49 1424.05 1169.11 1403.5 1166.09C1392.41 1163.9 1343.92 1161.22 1330.55 1163.09C1325.79 1163.51 1322.3 1164.54 1317.17 1165.09C1316.92 1165.11 1316.68 1165.14 1316.44 1165.16C1315.22 1165.57 1311.58 1166.29 1310.51 1167.01C1302.27 1170.23 1293.92 1172.87 1288.42 1175.75C1282.44 1178.33 1263.23 1196.1 1257.63 1202.24C1246.55 1213.01 1235.86 1224.78 1225.88 1233.5C1219.44 1238.68 1214.83 1243.69 1210.62 1248.49C1209.85 1249.37 1209.12 1250.26 1208.37 1251.19C1201.73 1259.48 1195.18 1269.74 1187.65 1277.05C1183.74 1280.92 1176.44 1285.18 1172.08 1288.68C1166.88 1292.77 1166.75 1296.03 1159.15 1299.93C1153.03 1303.31 1138.69 1304.72 1132.62 1304.81C1129.58 1305.07 1126.18 1305.25 1122.49 1305.14C1113.97 1305.64 1104.42 1306.35 1096.82 1306.13C1080.32 1305.75 1078.53 1309.01 1048.21 1293.3C1038.25 1288.01 1018.41 1276.79 1011.68 1273.61C1003.93 1269.55 1002.12 1268.17 1004.09 1266.91C1008.91 1264.33 1046.71 1264.43 1069.32 1261.32C1072.23 1260.95 1088.54 1258.92 1085.84 1257.63C1061.86 1255 1042.78 1256.6 1021.04 1256.42C996.125 1256.66 995.779 1255.79 975.943 1255.36C965.539 1255.35 956.855 1256.39 954.456 1256.79C950.918 1257.47 958.231 1256.04 973.056 1251.68C980.874 1249.44 994.916 1249.36 992.962 1250.52C1018.96 1246.4 1058.93 1242 1083.35 1250.47C1087.59 1251.9 1089.43 1253.45 1093.12 1255C1107.58 1261.05 1124.24 1268.9 1129.43 1276.47C1130.05 1276.54 1130.67 1276.6 1131.28 1276.66C1150.47 1277.27 1166.27 1264.05 1181.77 1249.06C1188.31 1245.29 1192.99 1240.65 1197.76 1235.75C1200.47 1232.96 1203.19 1230.08 1206.54 1227.07C1209.73 1224.22 1213 1221.4 1217.13 1218.42C1225.89 1210.87 1234.96 1200.79 1251.04 1188.36C1266.26 1176.53 1286.21 1165.08 1306.38 1158.17C1307.9 1157.15 1313.08 1156.12 1314.82 1155.54C1320.65 1155.2 1326.4 1155.03 1332.03 1155.01C1326.26 1154.61 1320.45 1154.31 1314.59 1154.14C1312.77 1154.74 1307.37 1155.81 1305.78 1156.88C1304.92 1157.1 1304.07 1157.33 1303.22 1157.56C1304.04 1157.28 1304.87 1157 1305.71 1156.72C1307.3 1155.65 1312.74 1154.57 1314.56 1153.96C1323.29 1153.61 1331.95 1153.6 1340.53 1153.87C1338.42 1154.23 1336.31 1154.63 1334.21 1155.06ZM1365.64 1187.67C1365.64 1187.67 1365.64 1187.67 1365.64 1187.67C1365.64 1187.67 1365.65 1187.67 1365.65 1187.67C1365.65 1187.67 1365.64 1187.67 1365.64 1187.67Z" fill="#37395C"/>
<path d="M1601.41 1177.69C1599.37 1179.12 1597 1180.65 1594.58 1182.08L1594.97 1181.62C1585.14 1188.74 1571.22 1196.06 1562.93 1199.02C1560.04 1200.07 1557.02 1201.16 1554.02 1202.22C1542.97 1205.05 1533.39 1211.85 1529.92 1215.29C1528.8 1216.34 1528.39 1216.83 1528.39 1216.83C1528.39 1216.83 1528.39 1216.83 1528.39 1216.83C1528.39 1216.83 1528.39 1216.83 1528.39 1216.83C1528.51 1216.89 1532.67 1210.9 1534.53 1206.01C1534.02 1206.77 1533.52 1207.54 1533.04 1208.32C1533.11 1208.12 1533.17 1207.93 1533.23 1207.74C1534.69 1204.77 1535.19 1202.62 1536.62 1199.4C1538.13 1196.02 1539.9 1192.93 1541.5 1189.71C1542.51 1187.61 1543.45 1185.32 1544.22 1182.54C1545.95 1176.17 1546 1170.71 1545.34 1165.81C1547.87 1159.12 1550.55 1153.4 1553.63 1148.49C1553.72 1148.44 1553.88 1148.14 1553.97 1148.08C1557.41 1143.03 1560.99 1139.26 1564.67 1136.12C1565.09 1139.9 1565.98 1142.92 1566.17 1146.62C1566.34 1150.01 1565.69 1154.17 1565.44 1157.68C1565.4 1157.71 1565.34 1157.82 1565.3 1157.85C1565.25 1160.3 1565.31 1162.43 1565.97 1163.75C1565.91 1164.04 1564.09 1165.6 1563.45 1166.61C1563.76 1163.67 1563.98 1160.06 1563.95 1156.77C1564 1156.74 1564.07 1156.6 1564.11 1156.57C1564.14 1156.06 1564.16 1155.54 1564.18 1155.04C1564.53 1149.74 1565.37 1136.62 1558.57 1144.16C1561.04 1145.97 1561.93 1150.09 1562.04 1154.84C1561.99 1154.87 1561.9 1155.05 1561.85 1155.08C1562.05 1157.24 1562.06 1159.55 1561.97 1161.83C1561.89 1165.26 1559.72 1172.77 1559.51 1174.93C1559.48 1175.23 1559.75 1175.57 1560.29 1174.79C1561.29 1172.9 1562.35 1168.36 1563.44 1166.62C1562.54 1175.24 1558.06 1185.01 1553.68 1192.22C1555.79 1190.02 1557.8 1187.75 1559.73 1185.41C1557.09 1191.91 1547.99 1203.47 1560.48 1197.26C1565.38 1194.98 1580.08 1185.4 1589.47 1177.21L1589.19 1177.57C1592.75 1174.86 1595.99 1172.24 1597.69 1170.68C1599.78 1168.76 1600.88 1166.81 1603.21 1164.66C1607.1 1161.07 1611.95 1158.15 1614.68 1155.36C1617.57 1152.82 1624.76 1137.42 1626.87 1131.68C1633.35 1117.71 1638.82 1095.65 1631.69 1080.38C1631.32 1079.54 1630.9 1078.69 1630.44 1077.86C1629 1075.3 1627.12 1072.88 1625.03 1070.71C1621.26 1067.11 1617.18 1063.83 1614 1060.69C1611.46 1058.17 1608.9 1053.66 1606.05 1051.36C1602.72 1048.64 1599.74 1049.11 1596.1 1045.54C1593.11 1042.64 1589.74 1035.7 1587.52 1033.14C1582.81 1028.09 1575.27 1020.73 1571.48 1013.88C1565.68 1003.05 1560.39 1001.3 1568.68 976.752C1571.59 968.709 1580.33 954.439 1583.13 950.199C1586.61 944.932 1587.97 943.984 1589.32 945.221C1591.79 948.309 1595.26 972.779 1604.66 984.797C1605.64 986.454 1612.3 994.681 1612.76 992.927C1608.18 980.066 1603.15 969.039 1601.06 955.716C1598.72 940.519 1599.89 940.14 1600.33 927.931C1600.53 921.339 1600.01 916.029 1599.78 914.403C1599.37 912.062 1600.08 917.001 1604.05 926.427C1606.05 931.401 1606.41 939.914 1605.23 938.675C1609.55 955.012 1619.56 976.779 1618.86 990.13C1618.71 992.458 1617.81 993.824 1617.51 995.937C1616.31 1004.47 1616.07 1014.57 1611.71 1020.19C1620.08 1032.73 1631.02 1042.53 1641.67 1057.16C1642.53 1059.85 1643.57 1062.27 1644.72 1064.59C1646.3 1068.15 1647.75 1071.6 1648.98 1075.19C1650.32 1079.12 1651.38 1083.19 1651.88 1087.58C1653.93 1110.2 1647.97 1126.57 1638.17 1141.82C1628.06 1157.08 1614.46 1168.73 1602.48 1177.01C1605.97 1175.16 1609.57 1173.17 1613.21 1171.03C1608.46 1174.61 1603.76 1177.76 1599.29 1180.59C1600.01 1179.64 1600.69 1178.7 1601.41 1177.69ZM1563.44 1166.61C1563.44 1166.61 1563.44 1166.62 1563.44 1166.62C1563.44 1166.62 1563.44 1166.62 1563.44 1166.62C1563.44 1166.62 1563.44 1166.62 1563.44 1166.61Z" fill="#37395C"/>
<path d="M2225.07 899.607C2225.27 899.852 2225.47 900.103 2225.67 900.361C2231.3 907.337 2238.36 920.461 2241.77 927.869C2246.37 938.333 2254.54 949.769 2257.93 952.815C2258.76 953.636 2259.16 953.931 2259.16 953.931C2259.21 953.797 2254.38 951.076 2250.35 950.69C2250.97 950.95 2251.62 951.219 2252.26 951.47C2252.1 951.457 2251.95 951.45 2251.79 951.439C2249.35 950.851 2247.61 950.98 2244.98 950.735C2240.32 950.35 2236.54 949.601 2230.41 950.053C2224.76 950.526 2219.98 951.833 2215.68 953.588C2206.82 952.39 2200.12 949.918 2194.92 946.382C2193.21 945.222 2191.64 943.931 2190.18 942.532C2193.42 941.294 2195.93 939.753 2199.04 938.703C2199.46 938.56 2199.88 938.428 2200.32 938.303C2205.05 936.998 2210.76 936.846 2213.2 934.959C2213.45 934.963 2214.75 936.297 2215.6 936.672C2212.73 937.058 2209.11 937.728 2205.98 938.479C2204.15 938.919 2201.31 939.502 2198.92 940.39C2196.05 941.508 2193.9 943.147 2195.74 945.149C2196.04 945.467 2196.44 945.791 2196.94 946.117C2199.2 942.171 2205.56 940.174 2211.55 939.028C2214.47 938.437 2220.85 938.7 2222.67 938.322C2222.92 938.263 2223.2 937.934 2222.53 937.648C2220.91 937.214 2217.1 937.311 2215.62 936.678C2222.9 935.664 2231.05 937.099 2237.2 938.347C2235.25 937.274 2233.28 936.235 2231.3 935.219C2233.83 935.773 2237.91 936.233 2240.25 936.13C2242.63 935.985 2243.38 934.987 2240.57 930.621C2237.88 926.545 2227.32 912.672 2221.4 906.753C2220.55 905.873 2219.77 905.128 2219.19 904.617C2217.61 903.214 2216 902.721 2214.28 901.173C2211.4 898.594 2209.33 895.053 2207.32 893.287C2205.4 891.427 2194.32 888.239 2190.63 886.932C2181.09 883.181 2169.9 878.356 2159.52 877.037C2158.93 876.96 2158.31 876.902 2157.67 876.859C2151.98 876.476 2144.74 877.269 2139.26 876.717C2136.4 876.437 2132.83 874.637 2129.85 874.629C2126.31 874.585 2124.14 876.611 2120.14 876.25C2116.88 875.947 2111.97 873.339 2109.4 873.127C2108.68 873.072 2107.92 873.044 2107.12 873.034C2107.01 872.895 2106.54 872.611 2106.43 872.466C2101.21 872.092 2094.42 871.965 2089.68 870.685C2080.92 868.181 2076.97 870.842 2070.98 851.926C2069.09 845.594 2067.77 832.035 2067.41 827.853C2067.08 822.743 2067.45 821.249 2069.11 820.957C2072.63 820.786 2088.31 831.088 2101.17 831.682C2102.74 831.933 2111.8 832.385 2111.26 831.029C2101.36 826.271 2091.96 823.835 2083.26 818.247C2073.25 811.877 2073.86 810.924 2067.23 804.426C2063.67 801.07 2060.09 798.737 2059.04 798.18C2057.41 797.382 2060.74 799.105 2068.98 801.039C2073.26 802.118 2078.32 806.233 2076.78 806.439C2089.08 811.786 2107.93 816.437 2114.34 825.226C2115.48 826.808 2115.44 828.186 2116.31 829.746C2119.75 835.861 2124.27 843.076 2123.06 849.604C2123.9 849.87 2124.76 850.137 2125.62 850.405L2125.14 850.014C2136.25 852.794 2147.76 855.059 2159.03 857.53C2162.08 860.011 2165.39 860.953 2168.76 861.75C2170.67 862.207 2172.6 862.618 2174.52 863.263C2184.31 866.576 2191.91 869.399 2200.49 875.535C2209.07 881.67 2217.55 889.99 2224.5 898.798C2222.95 896.108 2221.35 893.409 2219.77 890.754C2222.06 893.521 2224.26 896.361 2226.4 899.268C2226.8 899.806 2227.19 900.341 2227.57 900.871C2227.03 900.582 2226.47 900.295 2225.9 900.009C2225.63 899.875 2225.35 899.741 2225.07 899.607ZM2215.61 936.679C2215.61 936.678 2215.61 936.677 2215.61 936.676C2215.61 936.677 2215.61 936.677 2215.62 936.678C2215.61 936.678 2215.61 936.679 2215.61 936.679Z" fill="#37395C"/>
<path d="M2715.12 807.499C2731.33 803.611 2753.47 796.784 2777.73 791.172C2797.3 786.922 2815.74 784.266 2828.15 782.939C2844.09 781.248 2861.6 779.629 2877.66 778.315C2877.68 778.305 2877.75 778.296 2877.78 778.287C2886.29 777.713 2894.62 777.495 2901.92 777.84C2912.44 778.538 2920.84 778.549 2926.32 777.279C2930.39 776.414 2932 775.67 2932.01 775.695C2932.01 775.695 2932.01 775.695 2932.01 775.695C2932.01 775.695 2932.01 775.695 2932.01 775.695C2932.16 776.17 2915.77 780.472 2902.25 781.784C2900.95 782.003 2899.68 782.245 2898.46 782.505C2899.73 782.336 2901 782.182 2902.28 782.043C2903.49 781.911 2904.72 781.791 2905.95 781.672C2905.42 781.77 2904.89 781.87 2904.37 781.974C2903.65 782.075 2902.96 782.179 2902.3 782.288C2894.66 783.561 2889.63 785.256 2881.77 787.856C2881.19 788.049 2880.61 788.244 2880.03 788.438L2880.11 788.421C2865.91 793.617 2853.31 798.131 2837.43 806.17C2822.36 813.915 2812.26 820.998 2804.62 827.533C2800.65 829.488 2796.79 831.398 2793.03 833.264C2766.8 846.969 2739.97 859.41 2715.1 865.459C2721.19 860.601 2724.85 856.579 2730.95 851.723C2740.67 844.088 2758.08 833.249 2760.63 828.766C2761.28 828.364 2767.58 826.259 2770.59 824.894C2763.93 829.592 2755.79 835.672 2749.15 840.745C2739.84 847.871 2715.12 864.901 2741.66 855.695C2739.12 851.812 2751.83 841.62 2764.98 831.664C2769.66 828.133 2780.21 821.46 2787.25 817.376C2789.78 815.896 2791.84 814.686 2792.95 813.926C2793.53 813.533 2793.62 813.043 2791.17 814.02C2789.94 814.579 2788.44 815.323 2786.81 816.166C2781.43 818.935 2774.63 823.055 2770.64 824.871C2775.32 821.574 2780.62 818.195 2786.38 814.978C2801.58 806.483 2819.66 798.686 2835.01 792.777C2826.99 795.139 2819.01 797.66 2811.09 800.345C2827.87 792.37 2865.31 780.152 2830.02 785.5C2821.68 786.795 2801.5 790.501 2779.58 796.253C2750.28 804.552 2722.18 813.907 2710.36 816.957C2703.59 818.908 2698.55 820.866 2691.56 822.725C2690.9 822.901 2690.21 823.077 2689.5 823.255C2675.63 826.729 2661.64 828.883 2652.03 831.301C2642.39 833.561 2604.17 848.377 2590.97 853.464C2586.17 855.237 2581.24 857.064 2576.23 858.945C2540.95 871.931 2512.03 894.568 2487.31 904.004C2485.67 904.662 2483.99 905.312 2482.27 905.937C2479.99 906.77 2477.64 907.559 2475.22 908.273C2460.17 912.473 2443.64 916.914 2429.19 920.713C2420.3 922.956 2406.14 925.917 2399.26 930.778C2393.91 934.475 2392.62 937.55 2390.89 941.133C2389.65 943.32 2388.07 945.823 2385.61 949.098C2379.69 957 2366.26 971.785 2361.33 978.31C2351.49 991.667 2337.96 1011.62 2318.58 1024.13C2317.05 1025.13 2315.51 1026.08 2314.02 1026.96C2286.44 1041.54 2280.51 1045.81 2221.86 1046.93C2209.26 1047.11 2189.39 1046.15 2174.19 1046.64C2165.53 1046.83 2157.49 1047.91 2153.06 1048.43C2138.77 1050.29 2135.22 1050.6 2137.65 1048.02C2140.36 1045.36 2153.36 1038.5 2170.49 1031.86C2192.43 1023.74 2221.33 1015.55 2240.26 1007.69C2244.93 1006.05 2268.62 995.341 2263.64 995.677C2229.62 1005.85 2200.55 1013.28 2168.48 1023.8C2165.32 1024.87 2162.18 1026.03 2159.04 1027.25C2119.34 1044.25 2118.82 1044.79 2087.9 1059.68C2071.92 1067.81 2058.92 1075.67 2055.49 1077.87C2050.35 1081.28 2061 1074.19 2081.59 1058.77C2092.49 1050.64 2114.02 1039.81 2111.68 1042.3C2126.88 1033.16 2144.5 1022.28 2166 1013.88C2198.48 1001.83 2231.32 994.56 2255.79 990.814C2262.85 989.777 2266.41 990.068 2272.53 989.161C2280.43 987.968 2288.71 986.351 2295.37 984.376C2308.95 980.326 2322.87 971.636 2331.46 969.239C2345.3 954.015 2357.07 937.094 2372.41 919.963C2397.39 897.43 2422.63 897.176 2443.83 892.348C2455.47 891.787 2464.93 890.629 2473.73 888.99C2475.59 888.571 2477.42 888.049 2479.26 887.443C2483.91 885.908 2488.59 883.852 2493.9 881.394C2516.24 871.062 2537.85 854.888 2571.64 843.784C2578.12 841.682 2584.85 839.605 2591.92 837.542C2622.62 828.56 2656.35 820.464 2688.89 813.465C2696.68 811.804 2704.28 810.088 2711.82 808.257C2704.07 809.759 2696.37 811.073 2688.54 812.277C2686.16 812.655 2683.75 813.039 2681.35 813.423C2683.72 812.934 2686.1 812.445 2688.45 811.966C2700.6 809.531 2712.52 806.856 2724.54 803.783C2721.4 805.03 2718.27 806.267 2715.12 807.499ZM2770.63 824.883C2770.63 824.882 2770.63 824.881 2770.63 824.88C2770.63 824.877 2770.64 824.874 2770.64 824.871C2770.64 824.875 2770.63 824.879 2770.63 824.883Z" fill="#37395C"/>
<path d="M1231.89 554.327C1215.45 567.217 1195.53 582.937 1175.86 600.821C1148.67 623.93 1130.34 666.213 1113.98 689.741C1111.37 693.636 1108.63 697.576 1105.71 701.493L1106.42 700.129C1084.49 738.548 1055.02 778.538 1033.82 801.922C1033.79 801.973 1033.67 802.096 1033.64 802.142C1025.6 808.776 1017.47 810.327 1011.92 812.562C1005.33 814.849 1002.61 815.783 1002.59 815.798C1002.59 815.798 1002.59 815.798 1002.59 815.798C1002.59 815.798 1002.59 815.798 1002.59 815.798C1002.26 815.299 1018.86 812.143 1032.18 800.703L1032.16 800.732C1036.66 794.081 1041.41 787.194 1045.22 781.012C1042.85 784.467 1040.42 787.905 1037.99 791.34C1038.47 790.582 1038.95 789.828 1039.42 789.07C1047.73 776.646 1052.12 768.599 1059.01 755.24C1069.56 734.348 1077.73 715.381 1086.01 690.985C1086.11 690.811 1086.35 690.265 1086.47 690.104C1087.76 687.311 1089.01 684.412 1090.21 681.383C1099.98 656.029 1103.93 635.913 1108.5 619.196C1116.42 600.353 1126.79 582.129 1140.08 566.979C1166.18 536.333 1194.74 512.891 1217.84 493.234C1211.66 502.749 1207.73 509.628 1200.42 519.446C1188.7 534.793 1166.51 560.703 1164.14 567.9C1163.44 568.753 1156.99 574.85 1152.97 579.167C1152.43 579.745 1151.93 580.291 1151.49 580.788C1151.91 580.192 1152.34 579.589 1152.77 578.981C1160.36 568.268 1169.73 555.616 1177.49 545.377C1189.21 529.988 1219.12 493.599 1184.87 523.334C1189.26 525.575 1173.42 546.109 1157.59 568.391C1155.94 570.711 1153.65 573.803 1151.04 577.341C1140.93 590.328 1130.79 610.636 1128.65 616.884C1128.25 617.975 1128.39 618.538 1130.52 614.611C1134.77 605.796 1144.62 588.212 1151.43 580.86C1129.79 609.679 1117.52 655.612 1100.91 690.018C1107.72 677.674 1113.38 664.872 1119.05 652.223C1113.87 665.399 1106.1 685.765 1099.91 698.063L1100.27 697.375C1095.89 709.834 1094.68 714.916 1104.07 699.077L1103.5 700.183C1105.5 697.479 1107.85 694.102 1110.49 689.954C1121.8 674.929 1140.88 624.731 1171.32 596.527C1197.37 571.523 1224.28 550.783 1237.03 539.989C1246.57 531.948 1253.82 525.032 1263.51 515.324C1264.32 514.511 1265.15 513.684 1265.98 512.847C1282.95 495.366 1299.17 483.103 1308.3 480.204C1310.15 479.492 1312.92 478.403 1316.26 477.81C1325.92 476.166 1339.84 475.887 1354.85 477.988C1374.81 480.706 1392.69 481.211 1402.47 481.94C1412.29 482.6 1422.21 483.279 1432.01 484.294C1458.31 487.063 1484.48 488.795 1508.7 493.856C1537.37 499.894 1564.76 504.827 1588.14 510.862C1591.18 511.645 1594.26 512.456 1597.35 513.314C1601.89 514.575 1606.47 515.937 1611.04 517.464C1635.12 525.564 1661.79 535.462 1686.04 536.711C1689.84 536.945 1694.16 537.111 1698.73 537.012C1712.62 536.733 1728.81 536.716 1739.98 536.089C1757.6 535.353 1760.75 531.995 1783.03 534.027C1787.79 534.587 1793.79 535.703 1800.19 537.573C1817.39 542.861 1835.58 549.128 1843.25 549C1847.55 549.19 1851.81 548.707 1854.65 547.458C1857.57 546.177 1858.57 544.619 1859.5 542.584C1869.49 529.396 1877.47 513.285 1886.83 497.572C1899.88 477.927 1909.61 453.837 1949.89 448.329C1972.03 446.193 1996.71 451.907 2033.36 457.302C2038.36 457.945 2043.62 458.635 2049.19 459.388C2075.62 462.645 2124.48 472.443 2151.5 481.805C2158.25 483.932 2163.8 485.883 2167.71 487.33C2191.24 496.295 2195.86 499.577 2190.32 499.322C2185.6 499.244 2170.3 495.588 2149.37 492.967C2116.28 488.003 2069.63 488.631 2031.84 491.356C2022.7 491.928 2014.04 492.228 2006.24 492.497C1997.59 492.344 1955.85 495.034 1964.06 496.446C1986.1 495.994 2009.43 498.37 2031.56 497.652C2069.65 496.718 2104.56 495.212 2143.38 500.885C2144.86 501.089 2146.3 501.29 2147.74 501.5C2210.31 512.128 2213.65 518.842 2262.33 532.241C2264.11 532.697 2265.96 533.16 2267.86 533.629C2296.97 540.581 2321.52 545.674 2328.03 547.757C2337.85 550.476 2317.49 544.267 2275.53 539.283C2271.23 538.627 2266.26 537.8 2261.09 536.816C2239.39 532.68 2215.95 524.365 2220.22 524.956C2197.69 519.322 2172.36 513.584 2145.95 510.89C2107.96 506.324 2068.83 507.85 2031.11 507.62C2009.79 507.473 1990.05 504.961 1974.42 503.313C1964.9 502.342 1959.89 501.509 1953.06 501.319C1952.4 501.251 1951.76 501.231 1951.06 501.287C1935.18 500.953 1905.18 553.679 1882.82 566.391C1878.86 569.424 1874.71 571.33 1871.16 572.278C1838.4 586.489 1812.62 569.869 1790.47 565.192C1763.56 558.507 1730.27 561.737 1697.59 562.241C1681.35 562.572 1664.92 559.504 1650.39 555.04C1630.9 547.454 1616.55 540.487 1602.69 534.994C1598.72 533.437 1594.64 532.037 1590.44 530.733C1580.83 527.749 1570.67 525.257 1559.58 522.6C1540.9 518.149 1522.64 514.541 1504.3 510.462C1482.03 505.644 1458.27 503.772 1429.71 500.084C1418.35 498.598 1405.84 497.419 1391.91 495.889C1379.64 494.52 1366.59 492.973 1352.56 490.243C1339.67 487.641 1328.28 486.564 1317.47 487.564C1309.39 486.551 1290.33 502.062 1270.44 522.03C1258.94 533.072 1247.39 542.192 1236.61 550.691C1247.78 542.365 1259.57 533.561 1271.33 522.893C1274.45 520.101 1277.43 517.391 1280.33 514.803C1277.51 517.466 1274.6 520.25 1271.56 523.116C1253.33 540.316 1235.45 552.985 1218.98 566.124C1223.21 562.227 1227.52 558.312 1231.89 554.327ZM1151.45 580.83C1151.45 580.831 1151.45 580.832 1151.45 580.833C1151.45 580.842 1151.44 580.851 1151.43 580.86C1151.44 580.85 1151.44 580.841 1151.45 580.83Z" fill="#2C2A55"/>
<path d="M197.405 572.585C191.957 570.58 185.907 568.281 179.451 565.763C146.638 553.313 105.033 532.854 84.3308 521.154C77.6262 517.44 70.654 513.606 63.5995 509.954C52.5628 504.271 41.5055 498.806 30.9587 495.001L32.7129 495.061C29.3754 494.448 24.4589 498.128 21.0808 501.855C14.1861 509.905 8.17596 517.129 4.22029 521.427C1.22454 524.766 0.00897473 526.143 0 526.16C0 526.16 0 526.16 0 526.16C0 526.16 0 526.16 0 526.16C0.130729 526.244 11.2142 512.445 17.9407 499.601C18.7825 498.228 19.6516 496.906 20.5534 495.671C19.5311 496.882 18.5931 498.145 17.7095 499.435C17.0391 500.414 16.4036 501.407 15.7838 502.401C16.0478 501.891 16.3186 501.371 16.5895 500.856C16.9042 500.326 17.2161 499.809 17.5286 499.305C21.155 493.841 24.0802 488.825 31.615 486.738C31.8278 486.744 32.4249 486.698 32.6241 486.773C34.54 486.947 36.565 487.171 38.7691 487.474C49.2914 488.929 58.7646 490.967 68.9857 492.953C75.5494 494.231 82.4266 495.58 90.1204 496.805C108.182 499.698 121.318 500.429 132.102 500.06C155.17 504.736 175.515 509.19 194.23 514.009C207.367 517.389 219.501 521.033 231.018 524.831C223.16 525.58 217.817 526.854 209.758 527.265C204.318 527.544 197.238 527.29 190.513 527.027C181.648 526.706 173.499 526.284 170.577 527.32C169.771 527.219 163.179 524.804 159.723 523.889C168.384 524.59 179.098 525.12 187.757 525.165C188.741 525.171 189.845 525.186 191.034 525.202C204.647 525.513 228.474 525.018 203.12 517.745C203.033 520.121 198.581 521.48 191.915 522.117C185.609 522.74 177.334 522.69 168.839 522.293C160.417 521.995 139.087 518.604 133.624 518.11C132.884 518.059 132.483 518.38 135.222 519.16C141.257 520.629 153.771 522.361 159.666 523.874C137.583 522.21 107.587 515.225 84.2456 509.095C92.6577 511.972 101.097 514.832 109.574 517.579C90.1542 513.305 50.5553 501.711 84.2447 517.967C97.8156 524.873 147.165 547.068 181.441 558.796C192.588 562.762 201.93 565.945 207.643 567.758C215.851 570.369 222.244 571.659 231.176 574.398C246.098 578.988 260.972 584.359 271.847 586.865C271.889 586.875 271.932 586.885 271.975 586.895C284.46 589.765 324.214 592.92 336.938 597.425C348.116 600.556 359.774 604.922 371.538 610.254C404.217 624.185 433.617 624.044 458.388 625.779C460.465 625.873 462.581 625.949 464.713 626.009C483.793 626.612 505.121 625.845 523.427 630.904C526.24 631.69 529.522 632.898 532.817 634.462C540.493 638.102 549.14 642.203 555.525 644.18C566.21 647.422 569.264 645.787 581.726 648.975C591.659 651.679 610.158 656.532 617.642 656.045C617.784 656.042 617.924 656.039 618.061 656.035C633.778 655.544 657.287 651.384 676.691 650.774C699.934 650.259 708.173 647.477 738.247 656.186C748.407 659.434 761.308 664.128 778.206 672.3C798.606 681.384 833.23 707.519 843.46 719.837C843.842 720.264 844.202 720.664 844.535 721.036C854.957 732.54 857.284 735.458 853.631 734.728C851.319 734.239 845.779 731.296 838.252 726.86C816.184 712.172 770.991 699.495 742.236 698.79C740.102 698.668 734.065 698.337 728.08 698.317C719.937 698.316 711.902 699.228 714.765 700.058C719.066 700.516 723.238 701.018 727.291 701.586C762.671 706.794 792.498 711.808 823.04 728.234C826.708 730.243 829.967 732.199 832.896 734.082C862.075 752.301 865.007 755.042 893.784 771.579C910.605 780.91 925.643 787.064 929.77 788.517C935.993 790.541 922.941 786.663 896.93 777.492C883.181 772.689 860.806 759.673 864.4 760.403C853.062 754.944 840.498 748.628 827.522 741.328C796.037 723.87 756.118 717.001 725.501 709.005C723.769 708.547 722.038 708.092 720.35 707.642C713.287 705.783 709.896 704.151 703.376 702.563C677.812 696.391 644.482 691.971 631.232 684.734C625.242 684.753 619.205 684.718 612.896 684.33C579.028 681.702 548.485 669 519.855 656.109C514.082 653.873 506.731 652.102 498.916 650.77C485.918 646.641 473.554 645.439 461.187 644.412C454.126 643.838 446.947 643.358 439.148 642.518C414.609 639.4 392.846 638.443 363.649 624.873C352.182 619.365 340.523 614.373 327.319 609.984C311.091 604.425 293.513 601.387 270.112 595.978C245.543 590.003 222.525 581.894 201.004 573.973C211.708 578.436 222.486 582.869 233.599 587.163C217.353 581.625 201.804 575.75 186.269 569.754C189.983 570.725 193.69 571.668 197.405 572.585ZM159.689 523.876C159.688 523.877 159.688 523.878 159.687 523.879C159.68 523.878 159.673 523.876 159.666 523.874C159.674 523.875 159.68 523.875 159.689 523.876Z" fill="#2C2A55"/>
<path d="M586.882 944.156C575.454 927.235 554.571 897.631 543.635 883.462C535.368 872.282 524.693 860.354 514.404 852.274L515.5 852.638C507.087 849.101 498.849 848.012 494.162 847.395C491.338 847.054 490.153 846.991 490.152 846.988C490.152 846.988 490.152 846.988 490.152 846.988C490.152 846.988 490.152 846.988 490.152 846.988C490.18 847.206 503.902 846.895 513.544 846.821C511.813 846.628 510.081 846.502 508.35 846.428C508.721 846.398 509.092 846.367 509.465 846.336C512.15 846.326 514.414 846.327 516.657 846.379C516.768 846.431 517.127 846.485 517.22 846.566C519.95 847.401 522.652 848.196 526.031 849.449C536.506 853.307 545.018 857.635 557.323 862.589C568.615 867.116 577.343 869.832 584.956 871.484C608.257 885.439 624.53 900.932 636.492 917.271C631.083 915.258 626.941 914.587 621.64 912.563C613.283 909.331 601.046 901.949 596.809 902.265C596.356 901.99 593.411 898.499 591.658 897.018C596.905 899.464 603.487 902.474 608.981 904.826C616.627 908.146 635.877 917.571 623.027 903.187C620.168 906.787 609.239 902.516 598.407 897.769C593.18 895.464 580.878 888.361 577.478 887.107C577.01 886.935 576.602 887.141 578.021 888.266C581.309 890.536 588.613 894.434 591.629 896.993C578.287 890.711 561.731 880.308 548.462 872.861C552.95 876.187 557.382 879.577 561.785 883.032C550.827 876.73 528.99 863.559 544.884 880.664C553.879 889.754 587.561 931.499 595.785 942.996C598.931 947.041 601.787 949.67 604.962 954.102C606.603 956.4 608.102 958.756 609.462 961.056L609.211 960.719C612.826 966.833 616.279 972.594 619.497 976.688C623.636 983.105 648.691 1002.22 658.014 1007.05C681.738 1022.05 711.682 1033.06 735.256 1036.96C736.615 1037.2 737.972 1037.39 739.382 1037.58C740.118 1037.68 740.864 1037.77 741.617 1037.86C753.827 1039.32 767.271 1038.86 778.629 1039.12C784.962 1039.31 794.557 1040.82 800.7 1040.19C807.92 1039.44 809.642 1036.8 817.96 1035.88C824.717 1035.17 837.472 1035.35 842.335 1034C851.283 1031.71 862.584 1026.41 869.142 1021.96C870.139 1021.38 871.161 1020.8 872.124 1020.26C886.994 1011.56 885.713 1008.14 925.579 1000.07C938.763 997.453 965.601 993.385 974.17 991.87C984.357 990.313 986.939 990.406 985.648 992.672C981.943 997.655 944.605 1021.78 925.185 1039.4C922.674 1041.63 908.068 1053.97 911.512 1053.2C936.54 1039.52 953.204 1025.46 974.658 1011.95C999.076 996.243 1000.01 996.853 1020.38 985.684C1031.01 979.716 1039.51 974.045 1041.83 972.373C1045.23 969.841 1038.12 975.038 1025.16 987.217C1018.3 993.565 1004.38 1001.87 1005.7 999.746C981.486 1018.47 947.588 1047.57 918.486 1057.23C913.377 1058.91 910.613 1058.87 905.894 1060.03C897.456 1062.1 887.935 1064.07 878.901 1064.72C867.232 1065.67 857.938 1063.79 852.858 1060.87C822.246 1066.33 791.207 1066.06 760.077 1062.1C750.766 1059.1 742.741 1057.32 734.756 1055.51C734.012 1055.35 733.271 1055.18 732.533 1055.02C727.821 1053.99 722.984 1052.91 717.985 1051.45C692.409 1043.73 670.901 1035.84 645.585 1016.42C628.493 1003.17 612.774 985.184 601.303 966.511L601.658 966.987C597.33 959.99 592.74 952.943 588.108 946.06C591.531 951.997 594.78 957.959 597.792 963.89C592.876 955.739 587.609 947.562 582.096 939.399C583.692 940.993 585.28 942.57 586.882 944.156ZM591.643 896.999C591.642 897 591.641 897.001 591.64 897.002C591.636 896.999 591.633 896.996 591.629 896.993C591.634 896.996 591.638 896.997 591.643 896.999Z" fill="#2C2A55"/>
</svg>
